<?xml version="1.0" encoding="UTF-8" standalone="no"?>
<!-- Created with Inkscape (http://www.inkscape.org/) -->

<svg
   version="1.1"
   id="svg1"
   width="896"
   height="1200"
   viewBox="0 0 896 1200"
   xmlns="http://www.w3.org/2000/svg"
   xmlns:svg="http://www.w3.org/2000/svg">
  <defs
     id="defs1" />
  <g
     id="g1">
    <path
       style="fill:#ffffff;fill-opacity:1"
       d="m 635.5,929.0448 c -29.01081,-10.09785 -158.10094,-60.64643 -166.88849,-65.3495 -7.78265,-4.16525 -9.86894,-7.10614 -10.41709,-14.68418 -0.76412,-10.56387 -0.0164,-11.44767 17.80558,-21.04747 5.775,-3.11069 21.975,-11.8859 36,-19.50046 14.025,-7.61457 30.78552,-16.57134 37.24561,-19.90393 11.11392,-5.73339 11.77615,-6.24749 12.31357,-9.55926 3.2794,-20.20896 16.6152,-85.03016 23.96779,-116.5 1.92752,-8.25 3.97898,-17.7 4.55879,-21 0.57981,-3.3 2.12633,-7.64555 3.43671,-9.65677 4.76722,-7.31691 11.67254,-7.46168 44.47753,-0.9325 11.275,2.24407 34.45,6.80992 51.5,10.14634 40.67912,7.96028 80.48308,16.28982 93.22512,19.50868 5.62382,1.42067 10.79882,2.25241 11.5,1.84832 0.70119,-0.4041 0.95539,-0.38059 0.56491,0.0522 -0.39048,0.43283 0.73452,1.75144 2.5,2.93026 6.65569,4.444 8.25801,13.18568 5.24294,28.60343 -6.43782,32.92008 -23.44305,108.24489 -29.12288,129 -3.11856,11.39575 -4.27424,13.37988 -9.28102,15.93415 -3.67145,1.87304 -3.86535,2.22092 -4.37585,7.85072 -0.29379,3.23996 -1.2427,7.261 -2.1087,8.93565 -1.91775,3.70853 -10.60628,11.58826 -29.2219,26.50172 -7.74257,6.20277 -19.66757,15.86171 -26.5,21.46431 -18.11348,14.85306 -31.73731,24.99854 -37.36896,27.82816 -7.40897,3.72263 -12.50807,3.28915 -29.05366,-2.46991 z m 19.65349,-5.04418 C 654.87625,919.99979 654.45062,919 653.02459,919 c -0.9803,0 -6.67437,-1.53906 -12.65348,-3.42013 -11.25318,-3.54033 -18.37312,-6.16134 -46.37111,-17.07026 -9.075,-3.53592 -31.125,-12.04285 -49,-18.90429 -17.875,-6.86144 -37.9,-14.69287 -44.5,-17.40317 -6.6,-2.71031 -16.05,-6.39969 -21,-8.19864 -4.95,-1.79894 -10.75242,-4.15293 -12.89427,-5.23108 l -3.89426,-1.96028 0.56756,4.23151 c 0.90473,6.74525 -0.85169,5.79396 37.72097,20.43012 9.075,3.44345 21.9,8.3824 28.5,10.97544 6.6,2.59304 18.45988,7.16892 26.35528,10.16863 7.89541,2.9997 23.87041,9.22245 35.5,13.82832 16.68283,6.6072 41.52378,16.0246 57.64472,21.85357 0.825,0.2983 2.625,0.57817 4,0.62193 2.38809,0.076 2.48449,-0.14427 2.15349,-4.92105 z m 14.37308,-1.54707 c 11.09919,-7.72079 72.81555,-56.84274 79.21716,-63.05138 4.67926,-4.5382 5.25627,-5.55363 5.25627,-9.25 C 754,847.86848 753.7777,846 753.506,846 c -0.2717,0 -6.6842,5.08969 -14.25,11.31042 -7.5658,6.22073 -20.281,16.54372 -28.256,22.93999 -7.975,6.39626 -20.35,16.3638 -27.5,22.15007 -7.15,5.78628 -15.5875,11.91467 -18.75,13.61865 -5.67186,3.05605 -5.75,3.15851 -5.75,7.53951 0,2.93572 0.43276,4.44136 1.27657,4.44136 0.70211,0 4.86461,-2.4959 9.25,-5.54645 z m 57.88282,-50.60017 c -0.7408,-1.19863 3.23333,-4.79366 5.34061,-4.83114 2.09115,-0.0372 1.40798,1.48484 -1.69679,3.7803 -2.02432,1.49664 -3.165,1.8256 -3.64382,1.05084 z m 11.23051,-7.54682 c -1.39772,-1.39771 -0.47272,-3.10609 3.03192,-5.59967 3.446,-2.45187 5.32818,-2.71041 5.32818,-0.7319 0,1.29293 -7.62438,7.0673 -8.3601,6.33157 z M 667,908.75291 c 4.125,-2.83756 13.575,-10.13335 21,-16.21289 7.425,-6.07953 21.15,-17.10472 30.5,-24.50042 22.68471,-17.94326 33.92985,-27.41174 32.87108,-27.67767 C 747.23933,839.32413 685.21303,821.88591 673.5,818.46906 665.25,816.06243 647.475,810.8807 634,806.9541 620.525,803.0275 599.62887,796.9315 587.56415,793.40742 575.49944,789.88334 564.98155,787 564.19107,787 c -0.79049,0 -6.89436,2.97572 -13.56416,6.61272 -6.6698,3.63699 -20.90191,11.33185 -31.62691,17.09969 -10.725,5.76783 -25.76477,13.86024 -33.42172,17.98314 -7.65694,4.12289 -15.7273,8.63598 -17.93413,10.02909 -5.59268,3.5305 -7.4378,2.4421 26.85585,15.84177 6.6,2.57885 24.15,9.31405 39,14.96713 32.58171,12.40317 63.43477,24.20401 77,29.45137 36.1005,13.96455 42.7498,16.17017 46.5,15.42437 1.375,-0.27345 5.875,-2.81881 10,-5.65637 z m -82.5,-25.83376 c -2.75,-1.08448 -5.9,-2.41031 -7,-2.9463 -1.1,-0.53599 -7.12285,-2.78841 -13.38412,-5.00537 C 550.77743,870.24465 538,864.50657 538,863.23938 538,860.73509 559.51146,847 563.43361,847 c 1.32566,0 6.15792,1.30339 10.73834,2.89643 4.58043,1.59304 15.07805,5.22117 23.32805,8.06251 8.25,2.84134 16.0125,5.82332 17.25,6.62662 4.14548,2.69097 2.78236,4.78987 -8.30913,12.79425 -11.75985,8.48671 -13.41036,8.90341 -21.94087,5.53934 z m 18.5802,-8.02844 c 4.90589,-3.3601 8.9198,-6.4146 8.9198,-6.78777 0,-0.37317 -3.4875,-1.87238 -7.75,-3.33157 -4.2625,-1.45919 -14.87791,-5.15469 -23.58981,-8.21222 -8.7119,-3.05753 -16.5869,-5.52539 -17.5,-5.48412 -2.04245,0.0923 -18.41132,10.0972 -18.55587,11.34162 -0.0574,0.49392 2.82068,1.90621 6.39568,3.13844 3.575,1.23223 14.15,5.19483 23.5,8.80579 9.35,3.61096 17.59859,6.58197 18.3302,6.60225 0.73162,0.0203 5.34412,-2.71231 10.25,-6.07242 z M 653,871.91399 c -49.61019,-17.37974 -52.9558,-18.56665 -80,-28.38133 -57.40284,-20.8322 -57.11112,-20.71712 -56.78652,-22.40264 0.25859,-1.34278 23.61869,-14.68867 43.44581,-24.82108 l 5.15929,-2.6366 15.34071,4.24371 c 8.43739,2.33404 29.06571,8.31585 45.84071,13.29291 16.775,4.97706 36.575,10.80904 44,12.95995 17.37501,5.03327 51.26046,15.45276 56.75,17.45014 5.38485,1.95928 5.52125,4.23093 0.5,8.3273 -10.44378,8.52011 -42.94364,32.01054 -44.25,31.98326 -0.825,-0.0172 -14.325,-4.52426 -30,-10.01562 z m 37.36842,-0.70857 c -1.02763,-0.16201 -3.7832,-0.9876 -6.12348,-1.83463 -4.15632,-1.50433 -4.32528,-1.48097 -7.2818,1.00677 -1.66471,1.40077 -3.03931,2.90135 -3.05466,3.33464 -0.0154,0.43329 2.12409,1.53136 4.7543,2.44015 l 4.78221,1.65236 4.39593,-3.15236 c 3.42433,-2.45561 3.98296,-3.21746 2.5275,-3.44693 z M 672.06887,870.25 c 2.13864,-1.5125 3.89804,-3.00532 3.90978,-3.31738 0.0117,-0.31206 -2.43665,-1.34219 -5.44087,-2.28919 l -5.46222,-1.72181 -4.05811,2.68553 c -2.23196,1.47704 -3.9306,2.81303 -3.77477,2.96887 0.22845,0.22844 9.33472,3.94199 10.59754,4.32168 0.18713,0.0563 2.09002,-1.1352 4.22865,-2.6477 z m 27.51765,-4.41952 C 702.01394,864.08724 704,862.54287 704,862.39855 c 0,-0.461 -25.75181,-8.39968 -27.1533,-8.37073 -0.74068,0.0153 -3.05102,1.31807 -5.13408,2.89505 l -3.78738,2.86722 9.78738,3.21732 c 5.38306,1.76953 10.91238,3.82374 12.28738,4.56492 3.63985,1.96202 4.69626,1.77007 9.58652,-1.74185 z m -42.34877,-1.21749 3.73774,-3.30376 -5.96137,-1.80495 -5.96137,-1.80496 -4.22397,2.79529 -4.22396,2.79529 5.94759,2.23938 c 3.27117,1.23166 6.17259,2.2727 6.44759,2.31342 0.275,0.0407 2.18199,-1.41264 4.23775,-3.22971 z m -16.062,-5.45263 3.67576,-2.78399 -4.67576,-1.79819 c -2.57166,-0.989 -15.02575,-5.30847 -27.67575,-9.5988 -12.65,-4.29034 -28.75935,-9.86316 -35.79855,-12.38404 l -12.79854,-4.58343 -2.95146,2.1821 C 559.32815,831.39417 558,832.6862 558,833.06518 c 0,0.37899 9.3375,3.98437 20.75,8.01196 11.4125,4.02759 29.075,10.35325 39.25,14.05702 10.175,3.70378 18.725,6.75126 19,6.77217 0.275,0.0209 2.15409,-1.21477 4.17575,-2.74597 z m 71.0583,-2.82256 c 2.11286,-1.46421 3.48704,-2.97509 3.05375,-3.35752 C 714.34078,852.14443 690.51974,845 688.67986,845 c -0.71022,0 -2.79883,1.11222 -4.64137,2.4716 -2.33395,1.72194 -2.92367,2.62301 -1.94428,2.97078 0.77318,0.27454 6.35579,2.27906 12.40579,4.45449 6.05,2.17542 11.65081,3.98857 12.44625,4.02922 0.79544,0.0406 3.17495,-1.12408 5.2878,-2.58829 z m -43.75219,-1.32338 c 3.29094,-2.61531 3.52503,-3.06769 1.8875,-3.64764 -1.02815,-0.36413 -3.37217,-1.2645 -5.20895,-2.00082 -3.15331,-1.2641 -3.59645,-1.16204 -7.94487,1.82976 l -4.6053,3.16852 4.94488,1.74038 c 6.61878,2.32951 6.62428,2.32896 10.92674,-1.0902 z m -15.10659,-5.40701 3.87527,-3.3175 -6.47462,-1.7526 -6.47463,-1.7526 -4.24512,2.67983 c -2.33482,1.47391 -4.04972,2.87524 -3.81089,3.11408 0.60033,0.60033 11.02417,4.26706 12.25472,4.31077 0.55,0.0195 2.74387,-1.45736 4.87527,-3.28198 z m 68.72044,-1.32302 C 723.69307,847.34081 725,846.27851 725,845.92374 c 0,-0.35478 -2.56586,-1.37497 -5.70192,-2.2671 -5.09696,-1.44996 -5.94574,-1.4623 -8,-0.1163 -1.26394,0.82817 -2.29808,1.86639 -2.29808,2.30715 0,0.61129 5.33349,2.80895 9.84571,4.0569 0.19014,0.0526 1.65264,-0.67641 3.25,-1.62 z m -41.93124,-2.01193 4.1216,-2.72754 -5.98952,-1.9159 -5.98952,-1.91589 -3.15351,2.33149 C 667.41908,843.32694 666,844.66249 666,845.01249 c 0,0.35001 2.1375,1.34735 4.75,2.21633 2.6125,0.86897 4.87215,1.62298 5.02144,1.67557 0.14929,0.0526 2.12616,-1.13178 4.39303,-2.63193 z m -44.24332,-2.27881 c 3.73633,-3.19454 3.90037,-2.98933 -4.34906,-5.44066 -4.86651,-1.44609 -4.97565,-1.42923 -8.75982,1.35368 l -3.83192,2.81802 5.25983,2.0728 c 6.87242,2.70829 7.63453,2.65585 11.68097,-0.80384 z m 71.55998,-0.9728 c 2.02812,-2.24104 2.14175,-2.15167 -5.71431,-4.49421 -3.88714,-1.15907 -4.531,-1.08571 -7.23563,0.82443 l -2.9688,2.09673 5.4688,1.71501 c 7.13948,2.23892 8.30966,2.22303 10.44994,-0.14196 z m -42.17497,-2.43629 2.80616,-2.04372 -6.30616,-2.13627 c -6.50191,-2.20258 -7.21285,-2.11365 -11.75349,1.47013 l -2.44734,1.9316 6.44734,1.98901 c 3.54603,1.09395 6.89733,1.72889 7.44733,1.41099 0.55,-0.31791 2.26277,-1.49769 3.80616,-2.62174 z m -46.39905,-2.46393 3.40711,-2.82556 -4.83525,-1.64754 C 614.81958,832.74139 612.04257,832 611.30784,832 c -1.47401,0 -8.27577,4.16072 -8.29546,5.07443 -0.0143,0.66448 8.7585,3.70094 10.98762,3.80306 0.825,0.0378 3.0332,-1.2028 4.90711,-2.75686 z m 71.97892,2.2e-4 c 2.75152,-2.1157 2.49762,-2.35358 -4.82061,-4.51649 -5.32818,-1.57474 -5.48102,-1.56255 -7.8073,0.62287 l -2.37272,2.22906 4.8073,1.69435 c 6.20326,2.18636 7.31541,2.18311 10.19333,-0.0298 z m -43.84554,-2.30891 C 648.66822,834.60851 650,833.31781 650,832.94372 c 0,-0.37409 -2.73595,-1.44784 -6.0799,-2.3861 -6.05303,-1.6984 -6.09489,-1.69566 -9.47517,0.61822 l -3.39528,2.32416 5.72518,2.1984 c 7.1342,2.73946 6.72011,2.73488 10.26566,0.11354 z m -44.13106,-2.6932 3.40942,-2.82745 -5.96018,-2.01279 -5.96018,-2.01278 -3.68946,2.11714 c -2.02919,1.16443 -3.69385,2.39438 -3.69924,2.73322 -0.0103,0.6479 9.76988,4.72686 11.49021,4.79216 0.55,0.0209 2.53424,-1.2344 4.40943,-2.7895 z m 71.48549,-0.0404 2.89493,-1.90846 -6.71944,-2.07543 c -6.41927,-1.98271 -6.82638,-1.99767 -9.1135,-0.33494 -1.31673,0.95726 -2.4082,1.97131 -2.42549,2.25344 -0.0295,0.48242 9.29995,3.62571 11.46858,3.86399 0.55,0.0604 2.30272,-0.74894 3.89492,-1.7986 z m -117.21097,-3.57968 c 2.63797,-2.21971 2.76682,-2.56817 1.14436,-3.09495 -1.00557,-0.32649 -4.1576,-1.48967 -7.00452,-2.58486 l -5.17621,-1.99125 -3.80592,2.5862 c -2.09326,1.4224 -3.58897,2.58815 -3.32379,2.59055 0.26517,0.002 3.63213,1.1179 7.48213,2.47891 3.85,1.361 7.16004,2.48404 7.35564,2.49564 0.19561,0.0116 1.69335,-1.10451 3.32831,-2.48024 z m 72.56605,0.55777 c 1.2375,-1.03236 2.25,-2.10623 2.25,-2.38637 0,-0.28013 -2.25056,-1.25685 -5.00126,-2.17049 -4.8732,-1.61862 -5.09218,-1.60495 -8.55259,0.5337 -1.95324,1.20717 -3.38136,2.36484 -3.1736,2.5726 0.83602,0.83602 8.35675,3.2556 10.22745,3.29039 1.1,0.0205 3.0125,-0.80747 4.25,-1.83983 z m -42.38522,-4.30074 c 1.70263,-1.27528 1.29904,-1.54986 -4.64164,-3.15793 -5.96892,-1.61571 -6.75796,-1.63112 -9.55137,-0.1866 -4.80634,2.48546 -4.57156,3.28692 1.572,5.36621 6.03569,2.04279 7.50974,1.80667 12.62101,-2.02168 z m 70.14077,2.23817 c 0.99854,-1.10337 1.63078,-2.18828 1.40499,-2.41091 -0.2258,-0.22263 -3.24249,-1.13723 -6.70377,-2.03245 -6.07088,-1.57016 -6.38228,-1.55762 -8.81383,0.35504 l -2.52061,1.98272 6.31383,1.9997 c 7.96119,2.52144 8.13177,2.52319 10.31939,0.1059 z m -43.10493,-3.3248 2.90061,-2.321 -6.1838,-1.73508 c -6.13818,-1.72229 -6.21066,-1.71849 -9.82462,0.51506 l -3.64083,2.25015 4.92401,1.7334 c 6.65213,2.34174 8.4281,2.27528 11.82463,-0.44253 z m -75.7495,-1.89073 3.76543,-2.22166 -5.78292,-1.76058 c -5.65626,-1.72202 -5.87104,-1.71563 -9.80519,0.29142 -2.21224,1.1286 -3.83233,2.24193 -3.6002,2.47405 0.7704,0.7704 8.24374,3.29634 9.9646,3.36797 0.93106,0.0388 3.38729,-0.92929 5.45828,-2.1512 z m 28.98085,-0.8599 C 569.48438,820.77358 571,819.49483 571,819.07677 c 0,-0.41807 -2.64913,-1.56221 -5.88695,-2.54254 l -5.88694,-1.78242 -4.14719,2.47308 -4.14718,2.47308 6.28413,2.108 c 3.45627,1.1594 6.45601,2.12736 6.6661,2.15102 0.21008,0.0236 1.89758,-0.89369 3.75,-2.03855 z m 71.92533,0.66332 c 2.3521,-1.7199 2.19993,-1.8726 -3.89139,-3.90486 -4.4369,-1.48029 -5.03516,-1.48107 -7.28121,-0.009 -2.88094,1.88767 -2.87466,1.89843 2.19044,3.75385 5.07763,1.86 6.62016,1.88755 8.98216,0.16041 z m -42.73247,-2.95252 3.21339,-2.37077 -2.76911,-1.04342 c -8.62481,-3.24988 -9.26555,-3.28957 -12.92823,-0.80071 l -3.4878,2.37002 5.82346,2.02887 c 3.2029,1.11588 6.07353,2.0644 6.37918,2.10782 0.30565,0.0434 2.00175,-0.98789 3.76911,-2.29181 z m 27.57319,-2.12952 c 1.82869,-1.3842 1.80584,-1.47171 -0.62566,-2.39617 -7.33112,-2.78729 -11.01877,-3.28571 -12.60129,-1.70319 -1.82313,1.82313 -1.83618,1.80788 3.32893,3.8867 4.97478,2.00221 7.46318,2.05567 9.89802,0.21266 z m -73.48857,-1.89658 4.40945,-2.30648 -4.83759,-1.64833 c -6.21562,-2.11787 -7.26883,-2.07519 -11.43292,0.46332 l -3.45162,2.10417 4.95162,1.75841 c 2.72338,0.96713 5.17661,1.79824 5.45161,1.84691 0.275,0.0487 2.48425,-0.94943 4.90945,-2.218 z M 580,813.84273 l 3.5,-2.14979 -5.91524,-1.98488 c -5.72818,-1.92212 -6.0207,-1.9281 -9.25,-0.189 -1.83412,0.98773 -3.33476,2.11739 -3.33476,2.51034 0,0.55162 8.23405,3.46063 11,3.88619 0.275,0.0423 2.075,-0.89047 4,-2.07286 z m 27.39802,-1.34301 c 1.82869,-1.3842 1.80584,-1.47171 -0.62566,-2.39617 -7.33112,-2.78729 -11.01877,-3.28571 -12.60129,-1.70319 -1.86659,1.86658 -1.929,1.81164 4.32893,3.81097 6.31009,2.016 6.60309,2.0255 8.89802,0.28839 z m -43.86998,-3.82498 3.42193,-2.32527 -5.44213,-1.71548 c -5.25331,-1.65596 -5.57339,-1.6475 -9.22499,0.24383 -2.66146,1.37849 -3.33819,2.12816 -2.28285,2.5289 2.19925,0.8351 9.45,3.44073 9.80305,3.52282 0.16668,0.0388 1.84293,-0.97591 3.72499,-2.2548 z m 26.89896,-1.19621 c 2.37421,-1.7962 2.39328,-1.78123 -4.81045,-3.7759 -5.12728,-1.41971 -6.14555,-1.44551 -7.9227,-0.20075 -1.59237,1.11534 -1.72748,1.54297 -0.61655,1.95139 10.97061,4.03321 10.74154,3.99845 13.3497,2.02526 z m -16.58849,-5.32183 2.33851,-1.79883 -5.4514,-1.21997 c -4.36157,-0.97607 -6.01276,-0.96419 -8.25935,0.0594 l -2.80795,1.27939 5.42084,1.70055 c 6.72492,2.10965 5.98779,2.11138 8.75935,-0.0206 z M 757.37888,829.75 c 2.06347,-7.55061 9.14864,-37.52634 12.65558,-53.54285 1.65071,-7.53893 4.11502,-18.43215 5.47624,-24.20715 1.36122,-5.775 4.25724,-18.825 6.43561,-29 2.17836,-10.175 5.10659,-23.77986 6.50718,-30.23302 3.02452,-13.93542 3.16052,-18.24787 0.70262,-22.2783 -2.38993,-3.91897 -1.24512,-3.63137 -73.65611,-18.5041 C 638.00838,636.06833 611.70432,631 606.59237,631 c -8.3914,0 -9.62698,2.38898 -15.25154,29.48875 -2.3985,11.55619 -7.08222,34.06125 -10.40829,50.01125 -14.59238,69.97712 -14.7541,70.87422 -12.9748,71.97388 0.52676,0.32556 7.16426,2.32795 14.75,4.44977 7.58574,2.12181 18.51726,5.26367 24.29226,6.9819 5.775,1.71823 15.9,4.6747 22.5,6.56993 6.6,1.89523 19.65,5.66267 29,8.37209 16.64703,4.82392 36.48698,10.35488 65.5,18.25999 7.975,2.17293 17.425,4.80813 21,5.85599 10.24767,3.00369 10.7128,2.88294 12.37888,-3.21355 z M 739.5,823.4605 c -5.5897,-1.5919 -43.03767,-11.75791 -63,-17.10264 -7.15,-1.91434 -17.275,-4.77974 -22.5,-6.36756 -5.225,-1.58782 -14.675,-4.30479 -21,-6.03772 -24.31451,-6.66171 -55.31987,-15.97316 -56.529,-16.97665 -0.69549,-0.5772 -1.10303,-1.82042 -0.90564,-2.7627 5.25128,-25.06789 9.04131,-43.78607 11.38197,-56.21323 5.4774,-29.08082 14.93021,-73.90267 16.01231,-75.92459 0.79836,-1.49175 1.79129,-1.89532 3.81006,-1.5486 11.29628,1.94016 34.30674,6.32203 53.2303,10.13662 60.00062,12.09486 90.68079,18.47087 99.65868,20.71123 5.41273,1.35071 12.42097,2.97425 15.57388,3.60786 3.15291,0.63362 6.05354,1.67138 6.44584,2.30614 1.12394,1.81858 0.50708,6.07657 -3.28845,22.69896 -1.94814,8.53181 -4.17568,19.11238 -4.95009,23.51238 -2.78307,15.81285 -19.15599,89.11363 -21.66651,97 -1.08646,3.41292 -1.71366,4.02821 -4.27335,4.19223 -1.65,0.10572 -5.25,-0.44855 -8,-1.23173 z M 752.01163,800 c 2.22043,-9.625 6.06302,-26.95 8.53908,-38.5 9.16026,-42.72962 13.6228,-63.22427 15.63251,-71.79391 1.13426,-4.83665 1.78302,-9.07318 1.44168,-9.41452 -0.95307,-0.95307 -69.62674,-15.77409 -91.6249,-19.77431 -4.125,-0.75011 -16.275,-3.2247 -27,-5.49909 -10.725,-2.27439 -27.02041,-5.61255 -36.21203,-7.41812 l -16.71202,-3.28287 -1.10929,5.59141 c -0.6101,3.07528 -3.0715,15.26641 -5.46976,27.09141 -2.39827,11.825 -6.88833,34.55 -9.97793,50.5 -3.08959,15.95 -6.57972,32.92807 -7.75584,37.72904 -1.17611,4.80097 -1.89659,8.97083 -1.60105,9.26637 0.63446,0.63446 11.93248,3.87227 31.33792,8.98089 7.7,2.02708 19.85,5.41577 27,7.53043 7.15,2.11466 30.775,8.64444 52.5,14.51062 21.725,5.86618 43.1,11.70889 47.5,12.98379 7.32275,2.12176 8.06241,2.1775 8.73724,0.65843 0.40548,-0.91276 2.55396,-9.53457 4.77439,-19.15957 z m -26.84167,4.83004 C 725.38999,803.27668 726.16667,802.5 727.5,802.5 c 2.97814,0 2.6806,3.9036 -0.33004,4.33004 -1.93881,0.27462 -2.27462,-0.0612 -2,-2 z M 709.22251,800.4433 C 708.00013,799.58711 707,797.95965 707,796.82672 c 0,-2.12325 0.73555,-2.15494 6.75,-0.29082 3.56002,1.10339 2.86105,-2.55131 -1.25,-6.5359 -4.17987,-4.05129 -4.44646,-7.11036 -0.86514,-9.92742 3.00756,-2.36575 6.07586,-2.60812 8.61514,-0.68053 3.04362,2.31043 2.15622,3.90674 -1.76306,3.17148 -5.17132,-0.97015 -5.58746,1.47593 -1.09672,6.44663 2.11593,2.34209 3.60978,5.02899 3.60978,6.49272 0,5.44282 -6.91743,8.34454 -11.77749,4.94042 z M 728,795.67814 c 0,-3.99118 2.72001,-12.60642 4.62066,-14.63528 1.01362,-1.08201 1.65557,-1.16663 2.4935,-0.3287 0.83793,0.83793 0.55735,3.01521 -1.08984,8.45714 C 731.7957,796.53412 730.50445,799 728.87756,799 728.3949,799 728,797.50516 728,795.67814 Z m -35.77749,-0.23484 c -4.31738,-3.02402 -2.4041,-6.09303 2.61698,-4.19778 2.43396,0.91871 3.40424,0.91075 4.35069,-0.0357 0.95747,-0.95747 0.26763,-2.18657 -3.22413,-5.74442 -4.29952,-4.38088 -4.39443,-4.61111 -2.95415,-7.16568 1.98999,-3.52955 6.08564,-4.84139 9.7027,-3.10778 4.72572,2.26498 3.16644,5.38396 -1.7146,3.42965 -0.825,-0.33032 -2.14948,-0.18749 -2.94329,0.31739 -1.16525,0.74113 -0.63548,1.79434 2.75,5.46715 4.77812,5.18365 5.16549,7.33191 1.87884,10.41956 -2.72048,2.55575 -7.30924,2.82661 -10.46304,0.61761 z M 680,793.32728 c -3.65358,-0.61423 -8,-2.44683 -8,-3.37307 0,-3.63354 4.48943,-19.20479 5.66736,-19.6568 0.80023,-0.30708 3.78994,-0.16212 6.6438,0.32213 4.22869,0.71754 5.18884,1.25054 5.18884,2.88046 0,1.39693 -0.60307,1.94247 -2,1.80921 -1.1,-0.10493 -3.35,-0.32993 -5,-0.5 -2.45124,-0.25265 -3.05761,0.0959 -3.31492,1.90544 -0.24441,1.71881 0.31532,2.36539 2.5,2.88789 6.56913,1.57112 7.29411,4.94059 0.87368,4.06057 -3.88456,-0.53244 -4.52272,-0.35202 -5.09131,1.43943 -0.79787,2.51387 -0.79882,2.51291 4.07307,4.109 6.26024,2.05094 5.07133,5.2273 -1.54052,4.11574 z m -20.11195,-5.82692 c -6.06641,-3.29703 -6.23173,-12.2354 -0.32227,-17.42397 3.7745,-3.31406 6.96499,-3.8712 9.89587,-1.72809 2.26462,1.65593 1.27129,3.65613 -1.46088,2.94165 -5.14747,-1.34609 -10.0248,6.81604 -6.43999,10.77721 0.96206,1.06306 2.77789,1.93284 4.03519,1.93284 2.86088,0 3.95262,1.63406 2.36768,3.5438 -1.51144,1.82117 -4.67611,1.80415 -8.0756,-0.0434 z M 645,784.29377 c -0.825,-0.30158 -2.5125,-1.4695 -3.75,-2.59536 -4.6665,-4.24555 -1.53581,-15.81885 4.8905,-18.07886 3.76695,-1.32477 7.8595,-0.0339 7.8595,2.47896 0,1.75081 -0.43346,1.9652 -2.88482,1.42679 -2.35492,-0.51723 -3.27335,-0.13968 -5,2.0554 -3.75781,4.77728 -2.34114,10.4193 2.6162,10.4193 1.28227,0 2.60784,0.72042 2.94572,1.60092 1.00201,2.6112 -2.75528,4.12649 -6.6771,2.69285 z M 624,778 c -2.47219,-2.47219 -2.74832,-11.27325 -0.52096,-16.60409 2.28793,-5.47579 3.57024,-3.28064 2.87665,4.92447 -0.49124,5.81139 -0.3101,7.47257 0.92677,8.49908 1.28259,1.06445 1.7916,0.91289 3.07164,-0.91462 0.84386,-1.20478 2.10777,-4.4281 2.80869,-7.16294 2.05293,-8.01014 6.48497,-7.57104 4.67969,0.46363 C 635.44836,777.86098 628.93789,782.93789 624,778 Z m 111,-0.8225 c 0,-0.59297 0.78375,-1.51673 1.74167,-2.05281 2.85969,-1.60036 6.0256,-0.74205 -43.24167,-11.72326 -11,-2.45179 -25.85,-5.8195 -33,-7.48379 -7.15,-1.66428 -16.15,-3.72805 -20,-4.58614 -12.38948,-2.76137 -38.79363,-9.39494 -39.75125,-9.98678 -1.06719,-0.65956 -0.8634,-2.00822 3.67875,-24.34472 1.84541,-9.075 4.13742,-20.55 5.09336,-25.5 0.95594,-4.95 2.35481,-11.45704 3.1086,-14.4601 1.74652,-6.95796 1.7472,-6.95116 -0.62946,-6.32965 -3.0235,0.79066 -2.51516,-2.05393 1.10359,-6.17545 1.70698,-1.94414 3.75398,-3.5348 4.54889,-3.5348 1.3818,0 5.27963,7.13614 5.32556,9.75 0.0319,1.8138 -2.71992,1.53365 -3.79437,-0.38628 -0.6922,-1.2369 -1.08557,-0.44365 -1.61163,3.25 -0.38276,2.68745 -3.36805,18.10123 -6.63398,34.25283 C 607.67213,724.01815 605,737.57722 605,737.99783 c 0,0.74087 8.99255,3.39126 9.49065,2.7972 0.13605,-0.16227 1.00392,-3.7462 1.9286,-7.96429 0.92469,-4.21809 2.32033,-8.19964 3.10143,-8.8479 0.92829,-0.77042 3.09219,-0.94869 6.24758,-0.51471 7.62895,1.04925 7.57954,0.94534 5.45363,11.4683 -1.91895,9.49854 -1.89118,9.62929 2.1804,10.26606 1.65592,0.25898 2.13768,-0.93289 3.71969,-9.20249 2.7574,-14.4137 2.74946,-14.40287 10.00458,-13.64456 3.32397,0.34742 6.45627,0.88674 6.96068,1.19848 1.04279,0.64448 0.47614,5.30551 -2.0915,17.20385 l -1.78202,8.25777 2.43971,0.61232 c 1.34184,0.33679 2.58751,0.44579 2.76815,0.24224 0.56822,-0.64029 5.47988,-22.15799 6.13341,-26.8701 0.34326,-2.475 1.06871,-5.9625 1.61211,-7.75 0.95049,-3.12659 1.18666,-3.25 6.21932,-3.25 9.51744,0 9.48443,-0.13486 5.16311,21.09478 -2.06052,10.12287 -3.8146,18.8042 -3.89796,19.29185 -0.0834,0.48764 1.0465,1.22568 2.51081,1.64008 l 2.66237,0.75345 2.19432,-11.64008 c 2.94381,-15.61581 2.725,-15.29823 10.29082,-14.93624 6.1669,0.29505 6.19127,0.30821 6.50071,3.50922 0.17083,1.76718 -0.82744,8.27441 -2.21839,14.46051 -2.63015,11.6973 -2.49072,12.77482 1.65779,12.81112 1.1037,0.01 1.75,-0.74334 1.75,-2.03891 0,-1.95704 5.99829,-30.28883 8.08665,-38.19578 0.96837,-3.66646 1.09601,-3.75 5.72939,-3.75 2.76975,0 5.70989,0.68007 7.07556,1.63662 2.88945,2.02386 2.73753,3.85474 -2.31207,27.86338 -1.96653,9.35 -3.57642,17.28872 -3.57752,17.64159 -0.002,0.7386 5.04017,2.14956 5.6178,1.57194 0.21109,-0.2111 1.28643,-5.5205 2.38964,-11.79867 2.10671,-11.98891 7.40817,-36.60536 9.34993,-43.41486 1.0962,-3.84421 1.31826,-4.01157 5.7017,-4.29708 2.5086,-0.16339 5.7711,0.16297 7.25,0.72525 2.34164,0.89029 2.68802,1.57442 2.68191,5.29708 -0.004,2.35111 -0.92618,8.09975 -2.04961,12.77475 -1.12344,4.675 -3.59248,15.89922 -5.48677,24.94271 -1.89429,9.04349 -3.68369,17.19739 -3.97645,18.11979 -0.38872,1.22476 0.21643,1.82816 2.24378,2.23726 1.52683,0.3081 3.67606,0.893 4.77606,1.29977 1.97911,0.73188 1.97988,0.71669 0.0736,-1.45359 -1.36819,-1.5577 -1.61635,-2.50322 -0.85644,-3.26313 1.35405,-1.35405 9.28281,5.54139 9.28281,8.07304 0,2.00459 -3.41111,3.76644 -9.03253,4.66534 C 736.4052,778.03092 735,777.87377 735,777.1775 Z m -5.95141,-14.35794 c 1.03388,-3.83955 5.73366,-26.07257 9.55134,-45.18409 0.86405,-4.3255 1.19504,-8.21559 0.73554,-8.64465 -0.45951,-0.42906 -2.24732,-1.07715 -3.97291,-1.4402 l -3.13744,-0.66009 -1.56264,7.30474 c -2.72435,12.73534 -5.84822,27.9412 -8.11425,39.49719 l -2.19475,11.19246 3.57326,0.95419 c 1.96529,0.5248 3.66842,1.00069 3.78472,1.05754 0.1163,0.0568 0.71801,-1.77785 1.33713,-4.07709 z m -18.0394,-21.77033 c 2.22789,-10.69793 3.82635,-20.03543 3.55214,-20.75 -0.77176,-2.01118 -6.32103,-1.63172 -6.99063,0.47802 -0.98875,3.11528 -7.56492,35.65273 -7.56787,37.44416 -0.002,1.1001 1.1702,2.03186 3.24717,2.58154 1.7875,0.47308 3.35316,0.59844 3.47925,0.27859 0.12608,-0.31985 2.05206,-9.33439 4.27994,-20.03231 z m -22.08308,3.90737 c 1.27623,-6.62387 2.11964,-12.24418 1.87424,-12.48958 -0.2454,-0.2454 -1.87587,-0.73212 -3.62327,-1.0816 -2.32965,-0.46593 -3.18668,-0.26866 -3.21308,0.73958 -0.0198,0.75625 -1.10389,6.24214 -2.40908,12.19086 l -2.37307,10.81586 2.15908,0.87075 c 4.90069,1.97645 5.14456,1.62131 7.58518,-11.04587 z m -21.1328,1.2934 c 0.63047,-3.1625 2.25322,-11.14419 3.60609,-17.73708 1.35288,-6.59289 2.37896,-12.05282 2.28019,-12.13318 -0.0988,-0.0804 -1.57628,-0.44498 -3.28334,-0.81026 l -3.10375,-0.66415 -1.64902,8.29734 c -0.90696,4.56353 -2.70542,12.66481 -3.99657,18.00283 -2.53728,10.48991 -2.56987,10.371 2.92658,10.6785 1.74946,0.0979 2.25264,-0.7826 3.21982,-5.634 z m -19.15156,-8.5 c 2.04862,-11.06746 1.92934,-11.50408 -3.19062,-11.67971 -1.78698,-0.0613 -2.33023,1.17729 -4.25,9.68997 -2.64001,11.70635 -2.61187,10.98575 -0.45113,11.55041 5.7463,1.50167 5.87234,1.34898 7.89175,-9.56067 z m -21.71955,0 C 628.96488,727.67098 628.93282,727.5 625,727.5 h -3.5 l -1.41812,6.83708 c -1.54898,7.46794 -1.07191,8.6148 3.59722,8.64761 1.83046,0.0129 2.34934,-0.82467 3.2431,-5.23469 z M 608,775.24845 c -2.52801,-1.26289 -3.58787,-2.51216 -3.81642,-4.49845 -0.37368,-3.24756 1.04087,-3.52555 3.81642,-0.75 1.1,1.1 2.675,2 3.5,2 2.40674,0 1.73833,-2.96453 -1.5,-6.65278 -3.69249,-4.20551 -3.78611,-6.5837 -0.36514,-9.27464 3.34738,-2.63305 5.81265,-2.62507 8.46514,0.0274 2.75907,2.75907 1.20921,4.45364 -2.51949,2.75473 -2.2399,-1.02057 -2.87767,-0.99194 -3.59031,0.16113 -0.6078,0.98343 0.16016,2.39932 2.57161,4.74129 4.8093,4.67073 4.71137,9.48375 -0.24607,12.09315 -2.70237,1.42241 -2.16018,1.47408 -6.31574,-0.60185 z m 73.41621,-66.21898 -7.6295,-8.97053 -3.14336,1.62375 C 668.91451,702.57576 665.925,704.28727 664,705.48606 654.58402,711.34982 648.0912,715 647.07693,715 c -0.61689,0 -3.07439,-1.8 -5.4611,-4 -2.38672,-2.2 -4.83029,-4 -5.43015,-4 -0.59987,0 -4.52008,1.80614 -8.71159,4.01364 -7.25591,3.82141 -10.94295,4.46115 -8.45857,1.46766 C 620.33722,710.88875 635.81723,702 637.269,702 c 0.55404,0 2.96011,1.8 5.34683,4 2.38671,2.2 4.91204,3.99886 5.61183,3.99746 0.69979,-0.001 4.64734,-2.2765 8.77234,-5.05581 4.125,-2.7793 9.67791,-6.18121 12.3398,-7.55981 5.90229,-3.05681 6.0974,-2.95164 14.59652,7.86816 3.34826,4.2625 6.42617,7.75 6.83981,7.75 0.69558,0 15.99159,-8.72215 36.07693,-20.57193 8.01192,-4.7268 8.24676,-4.96658 5.75,-5.87111 -3.74334,-1.35615 -3.20439,-3.19588 1.14694,-3.91511 5.99068,-0.9902 9.00013,-0.74887 10.59895,0.84996 1.32241,1.32241 1.23864,2.1454 -0.7377,7.24769 -1.39549,3.60273 -2.89935,5.88488 -4.02016,6.10073 -1.51887,0.29251 -1.68756,-0.12452 -1.11142,-2.74769 0.64297,-2.92738 -0.59658,-4.33042 -1.92576,-2.17977 C 735.57003,693.50473 691.22132,718 689.32296,718 c -0.15248,0 -3.71052,-4.03674 -7.90675,-8.97053 z m 8.17829,-55.64382 c -0.36304,-0.94604 -0.24311,-2.13704 0.2665,-2.64665 1.54814,-1.54814 4.639,-0.36571 4.639,1.7747 0,2.57834 -3.97928,3.28566 -4.9055,0.87195 z m 75.5864,178.5513 c 0.99142,-1.34032 3.12119,-8.51195 4.73282,-15.93695 1.61163,-7.425 4.75818,-21.375 6.99232,-31 4.14473,-17.85605 20.00024,-89.82791 22.08796,-100.26238 1.20119,-6.00357 0.28394,-11.42894 -2.29515,-13.57537 -0.9113,-0.75841 -1.12768,0.2418 -0.90212,4.17001 0.35305,6.14878 -6.79691,41.45591 -19.77846,97.66774 -1.71473,7.425 -4.89505,21.6 -7.06737,31.5 -2.17232,9.9 -4.81669,20.83891 -5.87638,24.3087 -1.99994,6.54846 -1.24875,7.66409 2.10638,3.12825 z m -546.59155,36.47927 c -1.53991,-1.60392 -3.62982,-4.7299 -4.64425,-6.94661 -2.40291,-5.25084 -3.57791,-16.41867 -2.03148,-19.30822 1.81802,-3.39699 3.08505,-2.54366 3.10116,2.08861 0.0203,5.83274 2.60215,16.2961 5.13164,20.79674 2.89426,5.14963 2.00324,7.07778 -1.55707,3.36948 z m 17.51796,-2.49938 c -3.21186,-3.40243 -5.53101,-8.23629 -8.11622,-16.91684 -1.93691,-6.50369 -2.17,-9.09409 -1.75464,-19.5 0.50367,-12.61862 2.68318,-20.98037 4.89268,-18.77087 0.77763,0.77763 0.74313,3.09953 -0.12231,8.23043 -2.05907,12.20757 0.49642,31.28903 5.59839,41.80233 3.01347,6.20967 2.77996,8.62729 -0.4979,5.15495 z M 262.9844,839.1369 c -6.74953,-3.60894 -9.93997,-13.47146 -7.54067,-23.31024 3.54608,-14.54144 13.09054,-45.6286 16.06544,-52.32666 2.81664,-6.34171 5.65303,-8.89292 12.27285,-11.03888 2.90512,-0.94175 5.65661,-2.44327 6.11444,-3.3367 1.05709,-2.06289 2.2412,-30.12442 1.27115,-30.12442 -0.39743,0 -1.63938,0.64214 -2.7599,1.42698 -6.17306,4.32378 -27.01387,8.57532 -41.90771,8.54919 -22.53439,-0.0395 -41.75365,-5.8146 -57.92838,-17.40654 -12.19617,-8.74063 -25.71881,-25.00569 -33.33076,-40.09031 -4.09495,-8.11499 -9.68309,-26.26989 -12.74194,-41.39638 -5.89785,-29.16578 -11.90076,-43.43563 -22.99817,-54.67022 C 112.67689,568.50452 100.43416,561 95.988088,561 c -0.958759,0 -2.255077,-0.61678 -2.880707,-1.37061 -5.559049,-6.69825 38.138039,-22.68019 61.818839,-22.60987 9.7182,0.0289 26.79149,2.5279 34.13438,4.99629 33.98843,11.42558 56.51093,34.68449 70.40626,72.70834 l 3.73629,10.22415 6.33592,-7.72415 c 3.48476,-4.24828 7.82655,-9.37396 9.64842,-11.39039 5.68351,-6.29043 23.07265,-21.07697 31.74063,-26.99006 l 8.29155,-5.6563 -5.35983,-1.06651 c -9.06528,-1.80383 -17.97063,-3.01061 -27.03008,-3.66289 -6.69714,-0.48219 -9.05974,-1.05465 -10.3818,-2.5155 -1.58934,-1.75621 -1.59504,-2.06909 -0.0798,-4.38169 2.25832,-3.44664 2.17503,-3.5601 -2.6182,-3.56639 -4.92898,-0.006 -11.40128,-1.62116 -12.29507,-3.06735 -0.33954,-0.54938 0.81071,-3.2243 2.5561,-5.94426 5.34581,-8.33072 6.08348,-12.3614 6.92965,-37.86396 l 0.77579,-23.38115 -3.95263,-6.50615 c -4.95949,-8.16349 -7.01857,-12.86897 -11.81489,-26.99979 -6.44351,-18.98372 -7.37293,-25.07283 -7.41322,-48.56787 -0.0353,-20.59191 -0.009,-20.85809 2.27835,-22.71218 2.72611,-2.21012 5.72436,-1.86066 14.66979,1.70983 12.96366,5.17433 37.45184,22.41742 49.92538,35.15443 l 6.90926,7.05519 8.59074,-7.56174 c 10.46716,-9.2134 14.63681,-12.06863 18.85711,-12.91269 3.43091,-0.68618 3.81732,-0.0689 3.35132,5.35327 -0.22905,2.66506 -0.1675,2.67829 3.51801,0.75616 4.13641,-2.15728 7.97837,-1.89525 9.77272,0.66654 1.81541,2.59187 1.71727,2.80538 4.67586,-10.1727 5.60118,-24.57008 23.76073,-60 30.7529,-60 3.51282,0 11.11321,9.81877 17.52017,22.63394 9.87133,19.74459 14.55425,37.86684 15.3406,59.36606 0.48598,13.2867 0.72073,14.70919 2.80543,17 1.25128,1.375 5.51256,7.225 9.46951,13 3.95694,5.775 7.60679,10.3875 8.11078,10.25 0.50399,-0.1375 0.82074,0.0875 0.70389,0.5 -0.11685,0.4125 0.33733,1.74073 1.00929,2.95162 1.42155,2.56168 12.10832,10.47503 13.21913,9.78851 0.414,-0.25587 2.44008,-5.08332 4.50238,-10.72767 6.83371,-18.70328 11.85512,-26.79486 17.76438,-28.62581 7.84198,-2.42979 11.1059,-2.36214 15.04624,0.31185 2.06792,1.40332 4.30236,2.56564 4.96544,2.58292 2.97026,0.0774 4.96811,5.16706 5.42938,13.83168 1.40561,26.40304 -18.96237,76.67763 -44.62028,110.1369 -3.58497,4.675 -9.20841,11.32524 -12.49652,14.77831 l -5.97838,6.27832 1.15182,6.22168 c 0.63351,3.42193 2.11226,13.42169 3.28611,22.22169 1.93492,14.50549 2.03228,17.49451 1.04232,32 -0.60058,8.8 -1.35216,16.93186 -1.67018,18.07081 -0.48373,1.73239 0.0766,2.26699 3.42872,3.27132 9.24588,2.77013 18.53192,13.23566 22.15653,24.97078 7.0891,22.95184 -5.34089,48.9787 -29.52393,61.81945 -4.03262,2.14125 -7.45585,3.34217 -15.25,5.34993 -2.3375,0.60214 -4.25,1.66392 -4.25,2.35952 0,0.69559 3.42707,5.51575 7.61571,10.71145 9.77815,12.12908 12.85317,18.48461 12.00004,24.802 -0.80399,5.95352 -3.31215,9.30587 -8.21126,10.975 -8.96345,3.05385 -21.3221,-3.24077 -30.94968,-15.76359 -3.14312,-4.08833 -8.18151,-10.34111 -11.19643,-13.89506 -8.80918,-10.38419 -10.26431,-16.36583 -5.75849,-23.67161 4.78765,-7.76274 6.69544,-12.58563 6.02894,-15.24116 -1.48495,-5.91652 -11.6706,-11.27196 -18.76849,-9.86815 -1.79319,0.35465 -6.19211,1.79144 -9.7754,3.19287 -6.04826,2.3655 -6.64979,2.88367 -8.39559,7.23225 -10.77966,26.85083 -24.78531,40.38185 -47.08935,45.49356 -3.85,0.88236 -8.94668,1.89404 -11.32596,2.24819 -5.33152,0.79358 -6.88637,3.05646 -11.29779,16.44244 -6.59802,20.02096 -12.44733,29.53688 -20.36767,33.13502 -5.15707,2.34281 -10.14493,2.34345 -14.52418,0.002 z m 11.22931,-9.39692 c 3.37803,-7.04616 5.25025,-7.54855 4.53663,-1.21737 -0.43415,3.85177 -0.29656,4.34567 0.92758,3.32973 2.83651,-2.3541 6.28001,-9.60463 11.80037,-24.84656 3.08645,-8.52183 6.28851,-16.52711 7.11567,-17.78952 2.04517,-3.12132 6.19749,-4.84672 17.35592,-7.21184 15.93952,-3.37851 25.34899,-8.72616 33.43925,-19.00442 8.96724,-11.39242 13.28377,-21.30527 16.94629,-38.91695 1.19146,-5.72933 2.68742,-10.59066 3.32435,-10.80297 1.70054,-0.56685 2.64318,5.13964 1.87053,11.32372 -0.38599,3.08936 -0.28288,5.3962 0.24119,5.3962 0.50348,0 3.57336,-0.92938 6.82196,-2.06529 8.83607,-3.08964 19.59963,-4.93538 28.74452,-4.92913 11.73416,0.008 19.83314,2.64334 13.41203,4.36413 -1.2375,0.33164 -6.67248,0.60913 -12.07774,0.61664 l -9.82774,0.0136 4.32101,3.29575 c 5.75929,4.39275 6.99242,6.99878 6.56781,13.88009 -0.29203,4.73261 -0.9637,6.46325 -4.04179,10.41411 -5.00673,6.42636 -4.99334,10.35337 0.0584,17.13846 13.89915,18.66802 19.86955,25.70854 24.04818,28.35855 6.13628,3.89152 7.34568,3.82417 6.05106,-0.33696 -0.55613,-1.7875 -1.2522,-4.0375 -1.54682,-5 -0.34064,-1.11281 -0.003,-1.75 0.92596,-1.75 2.25575,0 4.53053,3.11273 5.2983,7.25 0.47844,2.57818 1.2236,3.75 2.38461,3.75 3.48316,0 4.0795,-2.00278 2.12665,-7.14227 -2.15845,-5.68058 -1.08836,-7.17391 2.6603,-3.7125 l 2.55018,2.35477 -0.73823,-2.5 c -1.10981,-3.75834 -4.28525,-8.62657 -9.55491,-14.6485 -2.60385,-2.97557 -6.0215,-8.09101 -7.59477,-11.36767 -1.93703,-4.03422 -3.44915,-5.96179 -4.68383,-5.97069 -1.19395,-0.009 -1.70788,-0.61721 -1.48886,-1.76314 0.24421,-1.27779 2.57266,-2.32048 8.62916,-3.86419 26.52589,-6.76105 43.74765,-24.15157 44.97883,-45.41961 0.96514,-16.67213 -5.30071,-29.13445 -17.84412,-35.49068 l -4.80472,-2.43474 -2.32349,7.16873 c -1.27791,3.94281 -2.95676,7.36972 -3.73076,7.61537 -1.60104,0.50813 -1.24434,-5.00357 1.41244,-21.82488 3.08244,-19.51636 2.98843,-32.99248 -0.43904,-62.93202 -1.72722,-15.08761 -2.91281,-28.02511 -2.63465,-28.75 0.96495,-2.51461 2.289,-1.29603 3.17975,2.92647 l 0.89539,4.24445 3.49669,-3.83889 c 4.34469,-4.76986 19.5763,-25.08099 23.1433,-30.86124 4.00522,-6.49037 12.32139,-22.34326 16.24256,-30.96271 l 3.49102,-7.67394 -3.46268,1.4468 c -3.29621,1.37724 -3.58252,1.32697 -5.95509,-1.04561 -2.08281,-2.0828 -2.9129,-2.33253 -5.05108,-1.5196 -2.17094,0.82539 -2.98142,0.55005 -5.34855,-1.81709 l -2.78989,-2.78988 -6.172,7.53663 c -18.40836,22.47845 -30.65415,35.72694 -40.86012,44.20582 l -4.25922,3.53846 4.40737,6.57255 c 7.28529,10.86426 8.11937,16.7198 2.38165,16.7198 -1.4806,0 -1.81309,0.44439 -1.30935,1.75 1.74714,4.52825 4.55121,16.55488 5.61564,24.08542 1.68823,11.94374 0.63561,38.19145 -1.99172,49.66458 -3.11477,13.60171 -8.59038,23.84767 -16.96823,31.7509 -8.83215,8.33181 -14.79037,10.7491 -26.4947,10.7491 -7.23561,0 -9.07907,-0.38792 -14.34263,-3.01815 -15.67321,-7.832 -24.35397,-26.10765 -25.87837,-54.48185 -0.45976,-8.55755 -0.12583,-13.92721 1.50391,-24.18322 2.66562,-16.77491 2.68776,-16.2339 -0.65512,-16.00504 -2.71129,0.18561 -2.74843,0.10826 -2.63841,-5.49469 0.11965,-6.09308 3.47522,-14.3538 6.59045,-16.22433 2.06382,-1.23922 3.47121,-0.13536 2.08218,1.63311 C 357.00176,582.85864 354,591.83656 354,594.03947 c 0,1.25393 0.63439,1.56191 2.48756,1.20766 3.59595,-0.68741 4.00056,1.46905 2.16486,11.53828 -2.42544,13.30417 -3.91259,31.92637 -3.16604,39.64524 0.80723,8.34614 4.67316,24.0365 7.07092,28.69819 0.95368,1.85414 3.69477,5.92622 6.09131,9.04906 10.99257,14.32408 30.82943,15.45641 44.94684,2.56565 14.45969,-13.20328 19.90926,-30.0495 19.81166,-61.24355 -0.055,-17.59026 -1.44293,-26.89856 -6.25916,-41.97891 -2.32048,-7.26577 -1.92795,-8.85132 1.97884,-7.99324 1.58027,0.34708 2.87321,0.22494 2.87321,-0.27143 0,-0.49638 -2.0509,-4.10807 -4.55755,-8.02599 -4.74788,-7.42099 -5.30863,-7.67913 -9.91496,-4.56427 -1.08487,0.73361 -2.77237,1.33384 -3.75,1.33384 -3.76829,0 -1.44053,-2.86815 6.95505,-8.56966 10.66295,-7.24131 20.45634,-16.89113 29.88755,-29.44945 3.91605,-5.21449 9.89842,-12.49656 13.29415,-16.18238 l 6.17405,-6.70149 -2.92297,-1.51153 c -1.60762,-0.83133 -3.21137,-2.26311 -3.56387,-3.18172 -0.94848,-2.47168 -7.4844,-1.27497 -20.37292,3.73024 -10.0359,3.8974 -11.50324,4.19206 -22.72853,4.56418 -14.22465,0.47154 -16.07066,1.13896 -16.20444,5.8586 -0.0535,1.88596 -1.26683,5.42485 -2.69638,7.86419 -3.98865,6.80611 -3.10476,10.57902 2.47838,10.57902 2.68178,0 4.43918,-1.44384 6.3834,-5.24445 1.58147,-3.0915 3.00306,-2.63109 3.35937,1.08799 0.56924,5.94144 -6.56789,10.48592 -12.96557,8.25567 -2.75998,-0.96213 -3.29363,-0.811 -5.05842,1.43257 -4.62719,5.88253 -12.60911,7.17953 -17.71961,2.87933 -2.83699,-2.38717 -3.90835,-5.24616 -2.4954,-6.65911 0.31974,-0.31974 2.18253,0.50526 4.13955,1.83333 3.97853,2.6999 5.99502,2.95687 9.75604,1.24323 4.76528,-2.17121 4.8493,-9.70843 0.12223,-10.9651 -1.59546,-0.42415 -4.60658,-2.14194 -6.69136,-3.81732 -6.33806,-5.09341 -12.21856,-4.00807 -25.72941,4.74877 -7.68655,4.98192 -9.35912,5.55305 -25.17838,8.59771 -13.95116,2.68511 -24.98725,6.24153 -31.89415,10.278 -4.96569,2.902 -15.01587,12.42422 -16.97323,16.08158 -1.17652,2.19834 -1.0867,2.24793 4.0822,2.25372 2.90685,0.003 13.16018,1.36103 22.78518,3.01728 9.625,1.65625 23.125,3.70098 30,4.54385 14.02705,1.71969 20,3.05557 20,4.47309 0,1.65156 -21.13327,1.52333 -29.86152,-0.1812 -5.31318,-1.0376 -5.39433,-1.0162 -9,2.37318 C 319.13732,579.11324 312.775,584.3076 307,588.77515 295.25169,597.86366 285.76284,607 288.07198,607 c 1.77088,0 4.92802,4.97505 4.92802,7.76562 0,1.54991 0.52171,1.85731 2.50784,1.47763 5.81826,-1.11223 10.59069,3.44796 9.19479,8.78588 -0.34582,1.32243 0.13621,2.34944 1.42695,3.04022 1.58712,0.8494 2.82456,0.40058 6.6619,-2.41628 C 318.77056,621.26402 331.19356,615 333.91898,615 c 3.44103,0 2.37141,1.90209 -2.91898,5.19078 -4.73856,2.94565 -5,3.33223 -5,7.39332 0,9.01628 -3.22215,20.51606 -9.50298,33.9159 -8.529,18.1962 -10.31312,22.37003 -12.82363,30 -4.07397,12.3817 -5.42816,20.65719 -6.21237,37.96398 -0.39785,8.78019 -1.10359,17.28975 -1.56831,18.91013 -1.21625,4.24081 -4.66359,7.48711 -9.26718,8.72672 -6.89899,1.85771 -9.78905,5.90381 -13.49932,18.89917 -1.80584,6.325 -5.49799,18.98578 -8.20478,28.13508 -4.76754,16.11492 -5.59484,21.2908 -4.03738,25.2594 0.69297,1.76576 0.88265,1.71758 2.79145,-0.70907 1.12637,-1.43196 2.61477,-3.97197 3.30755,-5.64448 0.69277,-1.67251 1.655,-3.04093 2.13827,-3.04093 1.61894,0 0.90059,6.03674 -1.21085,10.17549 -1.69513,3.32273 -1.83669,4.25872 -0.75,4.95891 2.56387,1.65197 4.31843,0.31005 7.05324,-5.39442 z M 438.66667,781.33333 C 438.3,780.96667 438,780.20167 438,779.63333 c 0,-0.6266 0.46577,-0.56756 1.18333,0.15 0.65084,0.65084 0.95084,1.41584 0.66667,1.7 -0.28417,0.28417 -0.81667,0.21667 -1.18333,-0.15 z M 396.4529,621.92379 c -0.36583,-0.59192 0.73471,-2.81814 2.44564,-4.94717 3.94733,-4.91191 5.10146,-7.98264 5.10146,-13.5731 0,-5.4621 2.00376,-6.68807 5.52478,-3.38024 2.21695,2.08272 2.48014,2.12747 3.09463,0.52614 0.63758,-1.66152 -0.48896,-8.00446 -2.09767,-11.81076 -1.27119,-3.0077 2.35293,-0.8817 4.03201,2.36529 2.6249,5.07598 2.91943,11.09012 0.67865,13.85737 -1.91867,2.36947 -2.04795,2.38955 -4.60326,0.71525 L 408,603.95389 v 3.5629 c 0,4.59551 -3.1606,10.74931 -6.88173,13.399 -3.36114,2.39334 -3.7564,2.47874 -4.66537,1.008 z M 259.5,721.96516 c 8.41036,-1.19574 20.37498,-4.19816 27.79964,-6.97608 l 5.42436,-2.02951 1.28556,-7.72979 c 0.70707,-4.25138 2.27562,-10.50732 3.48569,-13.90209 l 2.20012,-6.17231 -4.31959,-1.64967 c -5.12654,-1.95784 -13.37304,-9.10669 -16.49478,-14.29924 -1.22557,-2.03856 -2.33136,-3.85016 -2.4573,-4.02578 -0.12594,-0.17562 -2.08724,0.23744 -4.35844,0.9179 -3.14875,0.94339 -4.40682,0.95985 -5.29736,0.0693 -0.64234,-0.64234 -2.16837,-1.1679 -3.39117,-1.1679 -1.22281,0 -3.57777,-1.13973 -5.23325,-2.53273 -6.15888,-5.18235 -6.64265,-14.5295 -1.33863,-25.86394 l 3.12559,-6.67922 -6.58156,-15.21206 c -8.7714,-20.27345 -10.7159,-24.02789 -16.5316,-31.91916 -5.27128,-7.15254 -12.4704,-14.13759 -20.33953,-19.73472 -3.80461,-2.70614 -4.67821,-3.02677 -4.08693,-1.5 3.35331,8.65869 4.82946,21.06962 2.6651,22.40727 -0.66121,0.40865 -3.77418,-0.29588 -6.91773,-1.56561 -3.14354,-1.26974 -7.62205,-2.61347 -9.95225,-2.98609 l -4.23671,-0.67747 1.11025,2.88186 c 1.69422,4.3977 4.89451,19.46799 4.91888,23.16325 0.0328,4.97508 -2.18335,5.05862 -11.50852,0.43381 -8.13381,-4.03396 -8.27618,-4.06463 -8.85463,-1.90754 -0.32335,1.20579 -0.59405,5.83511 -0.60156,10.28736 -0.0111,6.60534 -0.35531,8.40421 -1.87027,9.77523 -1.64488,1.4886 -1.99896,1.5087 -3.10475,0.17631 -0.68647,-0.82715 -3.38926,-2.82136 -6.00619,-4.43157 l -4.75807,-2.92767 -0.58622,6.99248 c -0.88476,10.55341 -3.38867,12.22375 -10.2044,6.8073 -2.08519,-1.65711 -3.91151,-2.89266 -4.05849,-2.74568 -0.53266,0.53265 3.65579,19.41864 5.71262,25.75859 5.5558,17.12512 17.26347,35.67538 29.89912,47.37377 18.43273,17.06546 47.93164,25.50565 75.463,21.59139 z m 48.84455,-56.38805 c 3.70638,-7.9326 8.01762,-17.9451 9.58054,-22.25 C 320.93952,635.0241 322.66542,627 321.43688,627 c -1.78135,0 -20.12387,15.94047 -26.61641,23.13084 -3.9226,4.34422 -8.63405,8.8269 -10.46988,9.9615 -2.93561,1.81431 -3.20175,2.31725 -2.2084,4.17334 3.18722,5.95538 14.73039,15.54629 18.91064,15.71236 0.30406,0.0121 3.58533,-6.46834 7.29172,-14.40093 z m -36.14251,-13.97839 c 2.55994,-1.54613 2.99474,-0.31392 1.31109,3.71562 -0.83222,1.99178 -1.51313,4.11467 -1.51313,4.71753 0,2.46821 8.33148,-3.88072 20.28156,-15.45539 12.63897,-12.24192 12.66677,-12.27899 10.08688,-13.45447 -2.38413,-1.08628 -2.53534,-1.52335 -1.92808,-5.57289 0.78975,-5.26638 -0.97717,-6.95515 -5.59333,-5.34595 -4.05036,1.41196 -5.07669,0.71489 -6.27669,-4.26306 -1.42558,-5.91376 -4.68043,-6.52731 -9.19637,-1.73354 C 268.82742,625.40199 259.51921,640.88214 258.45269,649 l -0.59121,4.5 3.16626,-3.75 c 1.74144,-2.0625 3.7976,-3.75 4.56925,-3.75 1.90942,0 1.84443,0.24814 -1.71814,6.56067 -1.71663,3.0417 -2.93765,5.71387 -2.71337,5.93814 0.22427,0.22428 1.48629,0.80674 2.80447,1.29437 2.13762,0.79076 2.62012,0.45132 4.46338,-3.13994 1.13667,-2.21459 2.83259,-4.48913 3.76871,-5.05452 z M 158.375,623.875 c 0.34375,-1.71875 0.625,-5.76875 0.625,-9 0,-4.31308 0.3649,-5.875 1.37254,-5.875 0.7549,0 4.2424,2.29658 7.75,5.10352 L 174.5,619.20704 175,608.85352 C 175.51314,598.22796 176.1153,596 178.47399,596 c 0.74578,0 4.76922,1.80841 8.94099,4.0187 7.37131,3.90546 7.58511,3.95477 7.58816,1.75 0.002,-1.24779 -1.43655,-7.38518 -3.19619,-13.63866 -3.11311,-11.06352 -3.1482,-11.40735 -1.30172,-12.75752 2.05718,-1.50425 5.27913,-1.20661 14.31892,1.32278 2.92829,0.81935 5.58801,1.22587 5.91051,0.90337 1.08159,-1.08158 -1.94325,-12.04147 -4.89328,-17.72983 -2.57372,-4.96275 -3.59819,-5.93154 -8.63087,-8.16183 -7.95083,-3.52349 -17.33505,-6.26253 -26.5336,-7.74457 -9.37287,-1.51011 -28.11532,-0.73164 -37.67691,1.56493 -8.06882,1.93803 -25.67674,8.14773 -28.89791,10.19129 l -2.3979,1.52127 6.3979,3.38441 c 8.9318,4.7248 15.70233,10.07149 20.13367,15.89956 5.95256,7.82878 12.29961,21.07921 15.31677,31.9761 2.52961,9.13607 3.1653,10.3633 7.35814,14.20519 2.52413,2.31285 5.09558,4.22535 5.71433,4.25 0.61875,0.0246 1.40625,-1.36144 1.75,-3.08019 z m 137.95316,-80.83518 c 7.40291,-4.97311 15.41714,-7.8164 31.4781,-11.16779 17.15693,-3.58009 23.24597,-5.8578 32.36593,-12.107 7.56361,-5.18276 11.2111,-6.30543 16.10012,-4.95551 2.85717,0.7889 3.58872,0.64266 4.55927,-0.91144 1.81922,-2.91304 8.89992,-6.01938 15.04602,-6.60078 3.09232,-0.29253 6.7474,-1.25268 8.1224,-2.13368 1.77162,-1.13513 6.14188,-1.79009 15,-2.24803 11.30327,-0.58434 13.81889,-1.08992 26.27607,-5.2809 C 452.85291,495.08561 460.57871,493 462.44451,493 c 2.80787,0 3.77067,-0.6121 5.588,-3.5526 1.20759,-1.95393 2.03179,-3.70787 1.83156,-3.89765 -0.20024,-0.18978 -3.06407,-1.93072 -6.36407,-3.86876 -8.14102,-4.78109 -11.75556,-8.81448 -22.5661,-25.18099 -5.08607,-7.7 -11.49784,-16.59152 -14.24838,-19.75893 -5.33149,-6.13952 -5.51938,-8.33011 -0.46571,-5.4297 l 3.0907,1.77382 -0.63658,-11.2926 c -0.5968,-10.58704 -3.45675,-25.64975 -5.64722,-29.74269 -0.53418,-0.99812 -2.26652,-2.00487 -3.84966,-2.23722 -2.83563,-0.41618 -2.86571,-0.36962 -2.02331,3.13243 0.47032,1.95519 1.05385,9.62989 1.29675,17.05489 0.31437,9.61004 0.20463,11.77113 -0.38087,7.5 -1.09506,-7.98839 -5.60893,-27.52437 -8.08689,-35 -2.14189,-6.46178 -5.42876,-12.5 -6.8043,-12.5 -1.65329,0 -4.29944,14.41772 -5.3524,29.16299 -0.5864,8.21161 -0.79802,15.19836 -0.47027,15.5261 0.32775,0.32775 1.25701,0.0472 2.06503,-0.62335 0.80802,-0.6706 2.50639,-1.07222 3.77417,-0.8925 1.74579,0.24748 2.22913,0.87265 1.99218,2.57676 -0.1969,1.41604 0.20897,2.25 1.09501,2.25 0.77433,0 2.26512,0.96118 3.31286,2.13595 1.9042,2.13507 1.90375,2.13574 -1.09501,1.63821 -1.65,-0.27376 -5.25,-1.07135 -8,-1.77243 -2.75,-0.70107 -5.50007,-1.40019 -6.11126,-1.55358 -1.87996,-0.47183 -2.42956,-11.46543 -1.06019,-21.20683 1.26603,-9.00629 1.24863,-9.2419 -0.63836,-8.64299 -1.14009,0.36185 -2.28812,0.0562 -2.78452,-0.74132 -0.68049,-1.09328 -1.2308,-1.11772 -2.83158,-0.12575 -1.68421,1.04367 -2.20174,0.92459 -3.39678,-0.78158 -1.32663,-1.89403 -1.53177,-1.67159 -3.47562,3.76875 -1.71526,4.80054 -4.47877,13.88316 -6.85553,22.53157 -0.4062,1.47805 0.21612,1.75 4.00466,1.75 5.34479,0 7.64918,0.75315 7.64918,2.5 0,1.85597 -2.34103,2.49415 -9.33179,2.54389 -3.39251,0.0241 -7.96821,0.69237 -10.16821,1.48495 -2.2,0.79257 -4.7875,1.44782 -5.75,1.4561 -2.01771,0.0174 -2.36149,-2.97345 -0.55,-4.78494 1.92494,-1.92494 0.11003,-1.40948 -6.38682,1.81395 -4.60737,2.28595 -6.39861,2.74507 -7.41589,1.90081 -1.11825,-0.92807 -1.09433,-1.70408 0.14386,-4.66749 0.81681,-1.95489 1.29985,-3.7396 1.07343,-3.96603 -0.22643,-0.22642 -3.62285,2.43017 -7.54762,5.90354 -21.43484,18.96955 -21.74541,19.18066 -20.60955,14.00913 0.5433,-2.47361 -0.12859,-3.51411 -5.67054,-8.78162 -3.45778,-3.28654 -8.40757,-7.68924 -10.99954,-9.78378 -4.43674,-3.58528 -4.91361,-3.74194 -8.14455,-2.67563 -2.05969,0.67976 -3.6501,1.96713 -3.97767,3.21975 -0.36164,1.38292 -1.07011,1.88593 -2.09976,1.49082 -0.85467,-0.32797 0.80598,2.26785 3.69035,5.76849 6.05812,7.35251 12.24926,18.80977 11.38343,21.06608 -0.32657,0.85104 -1.36369,1.84279 -2.3047,2.20389 -0.94101,0.3611 -4.21372,3.04143 -7.27268,5.95629 -3.05896,2.91487 -5.89925,5.30921 -6.31175,5.32078 -2.28861,0.0642 1.61271,-8.56755 4.5933,-10.16271 2.07822,-1.11223 2.07777,-1.11636 -0.2141,-1.96418 -3.32134,-1.22864 -2.07749,-3.30114 2.1981,-3.66246 2.01998,-0.1707 3.6727,-0.51237 3.6727,-0.75927 0,-1.44943 -11.79017,-17.81659 -16.22767,-22.52731 C 275.36147,412.15903 266.56797,405 264.9234,405 c -3.66815,0 3.44534,31.6998 11.18959,49.86402 2.19577,5.15021 3.76302,9.5933 3.48279,9.87354 -2.42212,2.42211 -7.09058,-6.14632 -12.62585,-23.17328 -2.50742,-7.71305 -3.42171,-9.50837 -4.16546,-8.17937 -0.54794,0.97911 -1.66509,1.48133 -2.62869,1.18175 -3.72202,-1.15718 -4.05477,0.64894 -1.73793,9.43334 4.02158,15.24804 14.59415,38.47513 16.54447,36.34688 0.42684,-0.46578 1.31327,-2.52811 1.96983,-4.58295 0.65657,-2.05484 1.61093,-3.9939 2.12081,-4.30902 1.36094,-0.84111 1.13398,3.06506 -0.6708,11.54509 -0.98849,4.64457 -1.90076,16.25665 -2.39616,30.5 -0.82869,23.82612 -1.53785,28.21405 -5.59975,34.6485 l -2.40714,3.81317 2.25044,0.50994 c 1.23775,0.28046 4.72545,0.62658 7.75045,0.76916 5.07726,0.23931 5.80745,-0.0181 9.5,-3.34914 2.2,-1.9846 6.17267,-5.06792 8.82816,-6.85181 z m 31.63925,-24.57909 c -1.7682,-2.13054 -1.7698,-9.5913 -0.003,-12.89391 1.59336,-2.97804 5.75587,-5.56682 8.9509,-5.56682 4.94222,0 13.56634,11.50952 10.96908,14.63903 -2.00185,2.41207 -3.86075,1.4636 -6.07865,-3.10151 -2.25713,-4.64585 -3.80207,-5.85998 -6.2576,-4.91771 -1.70552,0.65447 -3.97699,6.87765 -3.05492,8.36959 0.93453,1.5121 -0.41889,5.0106 -1.93839,5.0106 -0.7206,0 -1.88504,-0.69267 -2.58765,-1.53927 z m 85.01498,-27.01408 C 410.36842,483.52624 414.2687,476 420.98722,476 c 2.68092,0 4.31368,0.7238 6.2035,2.75 4.82579,5.17404 6.28909,10.46817 3.21904,11.64626 -2.18555,0.83867 -3.12617,0.0799 -5.38145,-4.34077 -3.6544,-7.16322 -6.71497,-5.90588 -7.21843,2.96546 -0.23426,4.12784 -0.71359,5.53701 -1.96421,5.77458 -1.1419,0.21693 -2.0288,-0.82039 -2.86328,-3.34888 z m 92.06941,2.7331 c 5.35937,-16.73083 6.93771,-24.90573 6.88874,-35.67975 -0.0426,-9.38123 -0.14256,-9.86078 -1.61496,-7.75 -2.40494,3.44762 -3.66439,2.77025 -2.9663,-1.59537 0.54856,-3.4305 0.3415,-3.96993 -1.91924,-5 -3.73836,-1.7033 -4.99179,-1.43384 -6.25809,1.34537 -1.38677,3.04364 -3.92469,3.27645 -4.3624,0.40017 -0.31944,-2.09911 -0.32053,-2.09905 -3.22616,0.19577 C 488.89792,448.22478 481,463.11223 481,466.06431 c 0,0.69828 -1.62114,4.21891 -3.60254,7.82362 -2.89079,5.25914 -3.38472,6.90283 -2.5,8.31948 1.73291,2.77483 1.318,4.95491 -1.85258,9.7341 l -2.94656,4.44151 4.44242,1.55849 c 2.44332,0.85717 5.14672,2.57099 6.00754,3.80849 1.94889,2.80169 3.20837,2.82725 6.08639,0.12349 2.724,-2.55908 5.36533,-1.85585 5.36533,1.42846 0,3.44208 0.67463,3.68752 5.56013,2.02286 l 4.40206,-1.49993 z M 492.272,471.78932 c -4.6451,-2.2419 -3.59776,-8.53526 1.89298,-11.37463 3.97362,-2.05485 5.35242,-1.77695 8.24613,1.66204 2.74401,3.26107 3.38234,7.72982 1.38889,9.72327 -1.46626,1.46626 -8.48132,1.45977 -11.528,-0.0107 z M 505.38,460.54789 C 504.61133,458.54475 505.75207,457 508,457 c 2.30127,0 3.20903,1.2917 2.39626,3.40976 -0.76366,1.99004 -4.26858,2.08655 -5.01626,0.13813 z m -15.67876,-3.17999 c -1.21273,-1.21273 -0.76421,-4.07075 0.84895,-5.40955 2.25753,-1.87358 5.42094,1.27721 3.82568,3.81041 -1.1922,1.89315 -3.56792,2.70586 -4.67463,1.59914 z m 8.70972,-2.73935 c -1.1117,-2.89703 0.0208,-5.12855 2.60274,-5.12855 2.09589,0 2.4863,0.47107 2.4863,3 0,2.35154 -0.48731,3.0692 -2.25447,3.32014 -1.32218,0.18775 -2.49436,-0.30501 -2.83457,-1.19159 z M 154.75,816.9199 c -0.9625,-0.5606 -1.75,-1.8085 -1.75,-2.77311 0,-3.75479 7.06232,-22.46681 9.97354,-26.42545 5.69971,-7.7504 14.50652,-12.01012 20.28687,-9.81243 3.86128,1.46805 3.41129,3.53167 -1.51041,6.92665 -6.99085,4.82228 -7.93955,6.38704 -8.72285,14.3872 -0.80597,8.23152 -3.85161,16.07774 -6.86735,17.69172 -2.53519,1.35679 -9.0843,1.3599 -11.4098,0.005 z m 8.40076,-4.00058 c 2.68497,-1.43696 5.79994,-8.49378 5.82728,-13.20144 0.0294,-5.07041 2.0748,-9.66373 6.469,-14.52758 l 3.64138,-4.03058 -4.71021,1.78797 c -2.59062,0.98338 -5.47188,2.85994 -6.4028,4.17014 C 165.96802,789.94305 158,810.15729 158,812.42464 c 0,1.82722 2.25603,2.04389 5.15076,0.49468 z m -44.20265,-57.39824 c -2.35973,-8.93251 -2.26974,-8.8374 -9.44811,-9.98708 -9.951253,-1.59378 -10.169256,-3.77988 -0.97504,-9.77756 l 6.52496,-4.25644 -0.27496,-9.46965 c -0.35046,-12.07004 0.70785,-12.54525 8.98454,-4.03426 l 5.93986,6.10801 4.40032,-1.72118 c 2.42018,-0.94665 5.28795,-2.32007 6.37283,-3.05205 2.57275,-1.73586 6.17099,-1.70227 6.84875,0.0639 0.29438,0.76715 -1.08855,4.83001 -3.07318,9.02858 l -3.60841,7.63377 4.06337,4.22142 c 5.38165,5.59098 6.81183,8.39612 5.24391,10.28535 -1.50789,1.8169 -5.33306,1.82613 -11.31014,0.0273 -5.35389,-1.61128 -5.20365,-1.72543 -10.7378,8.15879 -4.41985,7.89403 -6.18029,7.25898 -8.9509,-3.22892 z m 11.5239,-9.49785 c 1.30722,-1.0849 2.59445,-1.12056 6.65076,-0.18425 8.15401,1.88217 8.48518,1.54223 3.49644,-3.58898 -2.53997,-2.6125 -4.61837,-5.38546 -4.61867,-6.16214 -3e-4,-0.77668 1.16413,-3.39951 2.58762,-5.82851 1.42349,-2.429 2.38718,-4.61734 2.14154,-4.86299 -0.24565,-0.24564 -2.57263,0.46469 -5.17107,1.57851 -2.59844,1.11382 -5.40155,2.02513 -6.22913,2.02513 -0.82757,0 -3.48775,-2.1375 -5.91149,-4.75 l -4.40681,-4.75 0.62305,6.65779 c 0.61449,6.56633 0.5835,6.67944 -2.2556,8.23301 -1.58326,0.86637 -4.16313,2.64972 -5.73304,3.96301 l -2.85439,2.38779 4.85439,0.72279 c 2.66991,0.39753 5.39387,1.16667 6.05324,1.70919 1.18337,0.97367 2.47286,4.4743 3.80383,10.32642 l 0.6823,3 2.33304,-4.56575 c 1.28317,-2.51116 3.06246,-5.17112 3.95399,-5.91102 z M 508,650.74789 c 0,-0.13866 1.31623,-4.85706 2.92495,-10.48533 4.60939,-16.1264 5.44725,-23.39648 4.6727,-40.54528 -0.37802,-8.36951 -0.84591,-16.90478 -1.03976,-18.96728 -0.19385,-2.0625 -0.14154,-3.75 0.11625,-3.75 5.95188,0 8.35058,37.80951 3.52101,55.5 -2.31581,8.48273 -4.72101,14.3186 -6.88828,16.7134 C 509.94314,650.72031 508,651.62199 508,650.74789 Z m 29.57985,-22.55939 c 3.63583,-9.00141 5.45912,-16.8917 6.11721,-26.47232 0.33185,-4.8311 0.96144,-9.00512 1.39908,-9.2756 1.10919,-0.68552 2.89158,6.21543 2.89828,11.22145 0.008,5.8756 -2.55967,18.58292 -4.55,22.5189 -2.081,4.1153 -5.39797,7.81907 -7.00249,7.81907 -0.81539,0 -0.44464,-1.89348 1.13792,-5.8115 z M 576.197,589.91349 C 572.12028,586.91543 570.89699,585 573.05902,585 c 0.58246,0 0.82346,-0.38114 0.53555,-0.84698 -0.2879,-0.46583 0.81054,-2.12502 2.44099,-3.68709 3.87252,-3.71011 3.74273,-5.72436 -0.49919,-7.74719 -3.92636,-1.87236 -8.17893,-7.68152 -9.13964,-12.4851 -0.91437,-4.57182 2.05775,-4.41661 3.57701,0.18679 1.1411,3.45757 6.77258,8.62391 10.48914,9.62277 3.06495,0.82373 4.50607,4.73457 4.52238,12.27254 0.0152,7.03684 -1.11935,10.68426 -3.32344,10.68426 -0.6973,0 -3.15647,-1.38893 -5.46482,-3.08651 z M 580.21331,584 c -0.47659,-3.24723 -1.15556,-3.65775 -2.99966,-1.81365 -0.91512,0.91512 -0.81111,1.60097 0.45499,3 2.33912,2.58469 3.04953,2.25349 2.54467,-1.18635 z m 93.08907,-17.25 c -1.12544,-1.2375 -3.28868,-4.1625 -4.8072,-6.5 -1.51853,-2.3375 -2.90122,-4.25 -3.07267,-4.25 -0.17144,0 -3.76782,1.575 -7.99195,3.5 -4.22414,1.925 -8.29907,3.5 -9.0554,3.5 -2.21544,0 -1.61133,-3.06361 2.15294,-10.91833 l 3.5281,-7.3619 -5.12336,-5.89045 c -7.16829,-8.24157 -6.54281,-9.21165 5.36386,-8.31897 9.08892,0.68143 9.31149,0.6459 10.37963,-1.657 1.89284,-4.08092 8.76876,-12.82231 10.09842,-12.83816 1.99304,-0.0237 3.22525,4.50024 3.22525,11.84132 v 6.72631 l 7.17537,1.68396 c 3.94646,0.92618 7.64884,2.15743 8.22753,2.73612 1.66755,1.66755 -0.43555,4.10236 -6.99328,8.09633 l -5.90962,3.59924 -0.5,7.90076 c -0.68392,10.80705 -2.39174,12.8854 -6.69762,8.15077 z m 2.04383,-11 c -0.49183,-7.25857 0.17598,-8.43888 6.65717,-11.7662 l 4.49662,-2.30848 -5.32332,-1.21098 c -2.92783,-0.66604 -5.84898,-1.73664 -6.49145,-2.37911 -0.64247,-0.64247 -1.39698,-3.73698 -1.67668,-6.87668 L 672.5,525.5 l -2.34795,3.77652 c -4.15526,6.68346 -4.74817,6.99206 -12.0718,6.28325 L 651.5,534.9229 l 3.14969,2.93483 c 4.22516,3.93693 4.59063,5.70922 2.4566,11.91313 l -1.81308,5.27085 2.1034,-0.64754 c 1.15686,-0.35615 3.37518,-1.29482 4.92959,-2.08594 2.49277,-1.2687 3.11237,-1.25089 5.25188,0.15097 1.33413,0.87416 3.60964,3.37845 5.05669,5.56509 1.44705,2.18664 2.74438,3.97571 2.88296,3.97571 0.13858,0 0.0614,-2.8125 -0.17152,-6.25 z m -95.08405,-44.59438 c -3.71919,-3.72475 -8.89717,-7.79746 -11.50662,-9.05047 -2.60945,-1.25301 -4.99034,-2.67605 -5.29086,-3.16231 -1.00555,-1.627 2.54181,-6.90636 5.06632,-7.53998 4.33141,-1.08711 11.02774,0.56191 17.09993,4.21099 7.57386,4.55151 10.36907,7.21731 10.36907,9.88902 0,2.52564 -5.40457,11.05467 -7.51918,11.86611 -0.91487,0.35107 -3.97116,-1.9595 -8.21866,-6.21336 z m 11.70692,-5.0999 c -0.0463,-0.83226 -8.007,-6.58275 -11.70185,-8.45295 -3.96334,-2.0061 -11.79076,-3.18273 -12.58829,-1.8923 -0.32163,0.5204 1.28393,1.77065 3.5679,2.77834 2.28397,1.00768 6.87528,4.57244 10.20292,7.92167 L 587.5,512.5 l 2.25,-2.94428 c 1.2375,-1.61935 2.23609,-3.19435 2.21908,-3.5 z M 180,497.2101 c 0,-1.53445 0.67885,-5.39619 1.50856,-8.58165 0.8297,-3.18546 1.25988,-6.1941 0.95595,-6.68588 -0.30394,-0.49178 -3.04927,-2.55133 -6.10074,-4.57678 -3.05147,-2.02545 -5.78199,-4.29207 -6.06782,-5.03695 -1.0562,-2.75241 1.77025,-4.32884 7.7614,-4.32884 8.08327,0 10.55445,-1.12963 11.32691,-5.17779 0.82403,-4.3184 5.25702,-13.82221 6.44729,-13.82221 1.58921,0 2.82638,2.26726 5.1838,9.5 1.25487,3.85 2.77727,7.33061 3.38311,7.73469 0.60585,0.40408 3.43475,0.74158 6.28644,0.75 5.93918,0.0175 10.30245,1.38462 10.34284,3.24056 0.0153,0.70111 -2.49721,3.54023 -5.58325,6.30916 l -5.61098,5.0344 1.63907,6.32539 c 1.96424,7.58023 1.7139,11.45846 -0.77007,11.92972 -1.67194,0.3172 -3.2073,-0.66326 -11.26672,-7.19477 l -3.06421,-2.4833 -6.36615,4.92708 C 182.61628,500.79175 180,501.35059 180,497.2101 Z m 27.42402,-6.9601 c -0.36663,-2.0625 -1.06202,-4.1775 -1.54531,-4.7 -2.1494,-2.32379 -0.85237,-6.09998 3.35581,-9.77016 L 213.5,472.05968 209,472.0151 c -7.18112,-0.0712 -9.26153,-1.67459 -11.08545,-8.54391 L 196.32911,457.5 194.54673,463 c -0.9803,3.025 -2.32669,6.08127 -2.99198,6.79171 -0.66528,0.71044 -4.09976,1.61456 -7.63217,2.00916 l -6.42258,0.71744 4.8744,3.37448 4.87441,3.37448 -0.65428,6.38617 -0.65429,6.38617 4.89931,-3.51981 c 2.69462,-1.93589 5.29557,-3.50251 5.77988,-3.48138 0.48431,0.0211 3.13057,2.03688 5.88057,4.47943 2.75,2.44256 5.13289,4.45027 5.29531,4.46158 0.16243,0.0113 -0.005,-1.66693 -0.37129,-3.72943 z m 429.17337,-28.03322 c -4.87083,-3.3908 -6.74355,-6.24468 -4.59739,-7.00606 3.42195,-1.21398 7.94465,-7.01236 8.5829,-11.00381 0.35701,-2.23261 1.4806,-5.42656 2.49687,-7.09768 2.63452,-4.33212 9.5754,-8.44822 14.39484,-8.53646 3.76212,-0.0689 4.12131,0.19453 6.71877,4.92723 2.515,4.58243 2.60555,5.10439 1.08427,6.25 -0.91295,0.6875 -2.5864,1.25224 -3.71878,1.25497 -3.84734,0.009 -7.19745,4.07661 -8.51457,10.33742 -0.96213,4.57343 -2.07782,6.69113 -5.13669,9.75 -2.14919,2.14919 -4.69511,3.89266 -5.65761,3.87439 -0.9625,-0.0183 -3.50617,-1.25577 -5.65261,-2.75 z m 9.16838,-5.60279 c 1.93021,-2.19838 3.21539,-5.00267 3.66415,-7.99524 C 650.25605,443.1097 654.15372,438 657.52988,438 c 2.71065,0 3.72634,-1.16873 2.89605,-3.33244 -0.98028,-2.55457 -3.36026,-2.74171 -7.568,-0.59508 -4.14719,2.11574 -7.11748,6.97527 -8.50551,13.91543 -0.34846,1.74228 -2.04292,4.66213 -3.76546,6.48857 -2.67717,2.83862 -2.91085,3.47216 -1.60944,4.36335 2.50046,1.71225 3.66616,1.33002 6.78825,-2.22584 z m -57.57721,1.34705 c -2.89096,-2.69334 -2.76124,-5.127 0.47854,-8.97725 5.65145,-6.71637 14.93891,-10.55531 18.26155,-7.54836 2.8514,2.58048 5.39953,9.12084 4.67625,12.00265 -0.58155,2.31706 -1.11553,2.56192 -5.58693,2.56192 -2.71916,0 -7.22725,0.9 -10.01797,2 -6.10839,2.4077 -5.18029,2.41233 -7.81144,-0.039 z M 602.66948,452 c 4.86071,0 5.51384,-1.31709 2.49924,-5.03997 -1.39714,-1.72539 -2.44569,-2.10733 -4.42293,-1.61108 -3.3275,0.83515 -8.4212,5.12269 -10.22122,8.60353 l -1.40359,2.71425 4.60899,-2.33336 C 596.4474,452.95763 600.11622,452 602.66948,452 Z M 123.25,433.33772 c -1.83393,-0.74001 -1.53104,-2.71072 0.88962,-5.78809 1.53901,-1.95654 2.27519,-4.61497 2.62261,-9.47056 l 0.483,-6.75049 -4.87262,-1.33879 C 117.11357,408.54483 113,406.30437 113,404.88499 113,404.39825 116.16617,404 120.03593,404 h 7.03593 l -0.6713,-8.89257 C 125.6638,385.34772 126.2912,381 128.43634,381 c 0.76904,0 2.10159,1.9125 2.96124,4.25 0.85965,2.3375 2.51589,6.86875 3.68054,10.06945 1.69446,4.65673 2.44764,5.67848 3.76971,5.1139 0.90869,-0.38805 4.03217,-1.39823 6.94107,-2.24484 4.77079,-1.3885 5.44084,-1.38734 6.83996,0.0118 1.40143,1.40143 1.39588,1.8512 -0.0576,4.66189 -0.88477,1.71095 -3.01751,4.7154 -4.73942,6.67655 l -3.13074,3.56572 2.26691,3.06616 c 1.77827,2.40524 1.98376,3.24116 0.95333,3.878 -1.37322,0.8487 -4.91087,-0.561 -6.13186,-2.44344 -0.48102,-0.74159 -1.12704,-0.5729 -2,0.52224 -12.12514,15.21109 -13.47076,16.44857 -16.53949,15.21031 z m 13.76787,-22.8187 c -1.25585,-1.33679 -2.78612,-2.33794 -3.40061,-2.22477 -1.11306,0.20498 -2.40221,5.74726 -2.54314,10.93341 -0.0725,2.66843 0.016,2.62988 4.07649,-1.77523 l 4.15062,-4.50289 z m 7.92355,-4.17168 c 2.58706,-3.28891 2.02107,-3.98866 -1.90936,-2.36062 -2.88813,1.1963 -3.81412,2.89789 -2.36539,4.34661 1.17552,1.17553 2.14057,0.72718 4.27475,-1.98599 z M 543,428.13063 c 0,-2.60943 9.17026,-11.78573 17.03543,-17.04666 14.13425,-9.45425 25.60875,-14.27148 28.92481,-12.14325 2.49202,1.59938 -1.34447,4.63179 -9.72875,7.68971 -7.90494,2.88309 -17.19226,8.55397 -28.23149,17.23829 -6.48204,5.09928 -8,5.90795 -8,4.26191 z m -55.40223,-17.8662 C 487.26899,409.93566 487,407.09201 487,403.9452 c 0,-3.16253 -1.13814,-9.64896 -2.54475,-14.50287 -3.12695,-10.79044 -2.55321,-11.87953 6.27833,-11.91767 5.15833,-0.0223 5.83236,0.22473 6.95965,2.55036 3.30531,6.81898 2.23106,20.54887 -2.06743,26.42341 -2.57453,3.51848 -3.06545,0.65877 -1.18396,-6.89685 1.19807,-4.8112 1.59138,-8.68248 1.14023,-11.22311 C 494.33943,381.38054 494.08245,381 490.59928,381 c -1.79627,0 -3.51397,0.24802 -3.8171,0.55116 -0.30314,0.30313 0.28329,2.74725 1.30318,5.43136 2.32893,6.12927 4.14673,17.24458 3.34353,20.44479 -0.60793,2.42217 -2.69816,3.97009 -3.83112,2.83712 z m 35.12776,-4.87223 c -0.93982,-0.93982 3.16225,-14.22693 6.32884,-20.4999 3.54242,-7.01749 6.31841,-10.07022 8.42295,-9.26263 2.25266,0.86443 1.8562,3.54359 -1.09891,7.42605 -1.44188,1.89435 -4.57926,7.57242 -6.97196,12.61793 -4.24339,8.94807 -5.55029,10.84918 -6.68092,9.71855 z m 88.94114,-10.05887 c -2.59154,-2.59153 2.10089,-8.64362 9.71254,-12.52679 l 4.00906,-2.04527 1.80587,2.23015 c 3.59416,4.43861 1.7501,6.98718 -7.5632,10.45263 -7.8728,2.92944 -7.10602,2.74754 -7.96427,1.88928 z m 72.35053,-5.81591 -5.41448,-5.48259 -6.33578,3.48259 c -7.0437,3.8717 -11.28107,4.52468 -11.2432,1.73258 0.0131,-0.9625 1.13597,-4.45 2.49536,-7.75 1.3594,-3.3 2.47372,-6.47472 2.47627,-7.05494 0.003,-0.58021 -2.49682,-3.42587 -5.55414,-6.32369 -3.05732,-2.89781 -5.3905,-5.77356 -5.18484,-6.39054 0.61342,-1.84025 5.86965,-2.77472 11.89336,-2.11446 6.36766,0.69797 6.59053,0.50927 11.88149,-10.05996 4.42308,-8.83554 8.02076,-6.99208 9.50274,4.86923 0.8136,6.5119 1.27276,6.8713 10.91973,8.54737 3.27453,0.56892 6.3914,1.4721 6.92637,2.00707 1.37727,1.37727 -1.76509,4.56126 -8.37352,8.48442 -3.02861,1.79797 -5.37054,3.84955 -5.20429,4.55907 1.21332,5.17831 1.33901,14.10128 0.21765,15.45243 -2.00631,2.41745 -3.24286,1.87373 -9.00272,-3.95858 z m 4.77026,-6.2137 c -1.45897,-7.35156 -0.6125,-9.58811 4.69428,-12.40336 2.48504,-1.31831 4.51826,-2.69297 4.51826,-3.05481 0,-0.36183 -2.21519,-0.96254 -4.92265,-1.33491 -7.00651,-0.96364 -8.19283,-2.16446 -8.97031,-9.07992 L 683.44027,351.5 680.22952,357 c -1.76591,3.025 -3.21497,5.8375 -3.22014,6.25 -0.005,0.4125 -3.27188,0.75881 -7.25938,0.76957 l -7.25,0.0196 4.25,3.56337 c 4.81436,4.03654 5.04639,5.30299 2.26459,12.36047 -1.09197,2.77036 -1.73555,5.03702 -1.43017,5.03702 0.30537,0 2.51739,-1.35 4.91558,-3 2.39819,-1.65 4.95476,-3 5.68127,-3 0.72651,0 3.57043,2.18687 6.31983,4.85972 2.74939,2.67284 5.07061,4.81034 5.15825,4.75 0.0876,-0.0603 -0.30471,-2.44805 -0.87189,-5.306 z m -84.77689,-29.79099 c -2.0665,-2.48998 -0.42117,-4.84485 2.9184,-4.17694 2.44911,0.48983 3.29891,0.0542 5.4846,-2.81136 1.42253,-1.86504 2.58643,-4.04616 2.58643,-4.84692 0,-0.80077 0.84189,-2.49563 1.87086,-3.76635 1.81195,-2.23767 1.95363,-2.25618 4.5,-0.58773 C 622.81689,338.2709 624,339.66446 624,340.42023 624,343.85699 611.37308,355 607.47864,355 c -1.22856,0 -2.78919,-0.66927 -3.46807,-1.48727 z M 560.25,349.50913 c -3.81915,-1.65996 -3.85571,-1.88558 -1.25734,-7.75963 1.62502,-3.67362 1.83135,-5.36821 1.11832,-9.18482 -1.38937,-7.43695 0.99924,-14.6011 6.54974,-19.64462 3.98742,-3.6232 8.10397,-3.59754 13.18368,0.0822 2.28558,1.65567 4.1548,3.79498 4.15381,4.75403 -10e-4,0.98115 -1.99671,3.00408 -4.56339,4.62566 -6.00212,3.79202 -7.813,6.61974 -6.90034,10.77504 0.39118,1.78103 0.67434,5.28682 0.62925,7.79064 -0.0676,3.75512 -0.61731,5.034 -3.13864,7.30239 -3.42987,3.08578 -5.08262,3.29867 -9.77509,1.25913 z m 7.76902,-5.03205 c 0.90549,-1.09105 1.07726,-3.53125 0.60572,-8.6049 -0.57331,-6.16855 -0.38491,-7.52417 1.46073,-10.51047 1.16541,-1.88567 3.66835,-4.48136 5.56208,-5.76819 l 3.44316,-2.33968 -3.28257,-2.07838 -3.28258,-2.07838 -2.36176,2.20146 c -1.29897,1.2108 -3.42621,4.2924 -4.7272,6.84799 -2.10921,4.14323 -2.26499,5.26363 -1.4382,10.34364 0.68755,4.22448 0.57934,6.70687 -0.41862,9.60347 -1.30462,3.7867 -1.2766,3.90636 0.91474,3.90636 1.24333,0 2.82935,-0.68532 3.5245,-1.52292 z m -246.08459,2.81429 c -5.77694,-4.86097 -9.05507,-16.28651 -5.51561,-19.224 0.81733,-0.67832 3.67894,-1.04819 6.75,-0.87244 5.1082,0.29231 5.34417,0.43055 5.64178,3.30507 0.61157,5.90701 2.23565,10.27352 4.76008,12.79795 l 2.56568,2.56569 -2.06818,2.06818 c -2.98727,2.98727 -8.14606,2.71497 -12.13375,-0.64045 z m 6.15806,-3.90092 c -1.12897,-1.43525 -2.34041,-4.77862 -2.69209,-7.42971 -0.59997,-4.52279 -0.81713,-4.81513 -3.51991,-4.73828 -3.4206,0.0973 -3.67747,1.74522 -1.22673,7.87023 1.13767,2.84331 2.62003,4.55382 4.75,5.4811 4.49527,1.95699 4.98824,1.74002 2.68873,-1.18334 z M 207.64185,341.25 c -0.34091,-2.0625 -0.62479,-6.01968 -0.63084,-8.79372 l -0.011,-5.04373 -6.05972,-1.34434 c -7.37537,-1.63622 -10.97014,-4.12238 -9.14334,-6.32354 0.67765,-0.81651 4.03805,-2.72947 7.46757,-4.25101 3.42952,-1.52155 6.391,-2.89808 6.58106,-3.05896 0.19007,-0.16088 0.68426,-4.3812 1.09821,-9.37848 0.41395,-4.99728 1.01203,-9.34536 1.32906,-9.6624 1.43889,-1.43888 4.81671,1.14696 8.66545,6.63371 2.3042,3.28486 4.75554,5.97247 5.44744,5.97247 0.6919,0 3.33477,-0.70763 5.87305,-1.57251 5.59039,-1.90483 10.10117,-1.57611 10.5456,0.76852 0.17681,0.9328 -1.28184,4.0768 -3.24145,6.98665 -1.95961,2.90985 -3.56293,5.92917 -3.56293,6.7096 0,0.78043 1.14528,2.92049 2.54506,4.7557 5.21237,6.83377 6.36504,13.35204 2.36114,13.35204 -1.0233,0 -4.8567,-1.12775 -8.51866,-2.50611 -7.52956,-2.83412 -6.27165,-3.40833 -12.60537,5.75418 -4.21736,6.10094 -7.23609,6.47249 -8.14032,1.00193 z m 8.45164,-9.24807 c 1.87358,-2.74893 3.98025,-4.99893 4.68149,-5 0.70124,-0.001 3.73722,0.86348 6.74662,1.92119 l 5.47163,1.92313 -3.24661,-5.91353 -3.24662,-5.91353 2.70309,-5.12521 2.70308,-5.12521 -3.20308,0.68009 c -9.64129,2.04709 -9.17722,2.15758 -13.40564,-3.19177 l -3.92711,-4.96816 -0.0606,6.44528 c -0.0701,7.45128 -0.81048,8.51039 -7.80542,11.16562 l -4.87495,1.8505 5.64261,1.64035 c 5.18254,1.50661 5.72717,1.94484 6.67975,5.37484 0.57043,2.05396 1.03966,4.97198 1.04272,6.48448 0.003,1.5125 0.16015,2.75 0.34907,2.75 0.18892,0 1.87642,-2.24913 3.75,-4.99807 z m 278.16359,2.17812 c -0.83649,-0.53122 -1.16453,-3.06044 -1.00319,-7.73469 0.17792,-5.15466 -0.2444,-7.92143 -1.63799,-10.73112 -2.16525,-4.36547 -1.76906,-5.12203 2.66743,-5.0937 6.96931,0.0445 10.65821,1.36573 12.21418,4.37465 3.9747,7.68621 -0.91491,20.02438 -7.92182,19.9895 -1.69163,-0.008 -3.635,-0.37051 -4.31861,-0.80464 z m 7.01604,-6.2396 c 1.11293,-2.15946 1.67143,-5.11595 1.5,-7.94045 -0.24084,-3.96814 -0.5686,-4.53455 -2.77312,-4.7923 -2.49437,-0.29164 -2.5,-0.27306 -2.5,8.25 0,9.20252 0.83152,10.19043 3.77312,4.48275 z M 451.8648,314.27676 c -1.30064,-0.86479 -4.25229,-3.375 -6.55923,-5.57822 l -4.19442,-4.00587 -6.37529,4.15366 C 431.22945,311.13085 427.60444,313 426.68028,313 c -2.26682,0 -2.19795,-4.1204 0.18986,-11.35833 l 1.87015,-5.66878 -5.87015,-5.08539 c -5.69825,-4.93648 -6.95082,-7.10157 -4.8571,-8.39556 0.55718,-0.34435 4.6855,-0.93341 9.17405,-1.30902 l 8.16101,-0.68292 2.86447,-7 c 3.49446,-8.5395 5.03981,-10.36536 7.23264,-8.54547 1.48058,1.22877 2.26102,3.40852 4.58134,12.79547 1.025,4.14667 1.15293,4.2514 5.26199,4.30763 7.23507,0.099 12.16336,1.33481 12.51045,3.1371 0.29074,1.50969 -5.92845,7.18409 -11.41122,10.41162 -1.71476,1.00943 -1.77027,1.51445 -0.63359,5.76435 1.68978,6.31792 1.62029,13.27162 -0.13938,13.94687 -0.76186,0.29236 -2.44936,-0.17601 -3.75,-1.04081 z m 0.002,-9.02676 c -2.49436,-10.13589 -2.5874,-9.73544 3.23329,-13.91718 l 5.33467,-3.83258 -5.83992,-0.72948 c -3.21195,-0.40121 -6.43498,-1.22335 -7.16229,-1.82697 -0.72732,-0.60361 -1.8505,-3.64138 -2.49597,-6.75058 l -1.17358,-5.65311 -2.86128,5.65852 c -1.5737,3.11218 -3.38441,5.98183 -4.02381,6.377 -0.63939,0.39517 -3.68593,1.00128 -6.77009,1.34691 l -5.60755,0.62842 4.25,2.73707 c 4.43513,2.8563 5.1858,5.04367 3.39643,9.89688 -0.46947,1.27331 -1.1547,3.5592 -1.52274,5.07977 l -0.66916,2.76467 4.89217,-3.51467 c 2.69069,-1.93307 5.51342,-3.50541 6.27273,-3.4941 0.75931,0.0113 3.63057,2.01902 6.38057,4.46158 2.75,2.44255 5.06511,4.4583 5.14469,4.47943 0.0796,0.0211 -0.27059,-1.64908 -0.77816,-3.71158 z"
       id="path1" />
  </g>
</svg>
